<?xml version="1.0" encoding="utf-8"?>
<!-- Generator: Adobe Illustrator 27.9.0, SVG Export Plug-In . SVG Version: 6.00 Build 0)  -->
<svg version="1.1" id="Layer_1" xmlns="http://www.w3.org/2000/svg" xmlns:xlink="http://www.w3.org/1999/xlink" x="0px" y="0px"
	 viewBox="0 0 128 64" style="enable-background:new 0 0 128 64;" xml:space="preserve">
<style type="text/css">
	.st0{fill:none;stroke:#006AA6;stroke-width:2;stroke-linecap:round;stroke-linejoin:round;stroke-miterlimit:10;}
</style>
<g>
	<polyline class="st0" points="77.2,49.3 77.2,58 37.7,58 37.7,17.2 47,6 77.2,6 77.2,15.6 	"/>
	<polygon class="st0" points="47,16.4 38.2,16.5 47,6 	"/>
	<line class="st0" x1="55.3" y1="16.5" x2="68" y2="16.5"/>
	<line class="st0" x1="44.2" y1="22.6" x2="68" y2="22.6"/>
	<line class="st0" x1="44.2" y1="29.2" x2="68" y2="29.2"/>
	<line class="st0" x1="44.2" y1="36.1" x2="68" y2="36.1"/>
	<polyline class="st0" points="43.5,54.1 45.5,48.9 47,53.9 50.1,43.7 51.5,53.9 53.1,50.3 53.7,53.9 64.9,53.9 	"/>
	<path class="st0" d="M69.7,40.1l13-27.6c0.9-1.8,3-2.6,4.8-1.7l0,0c1.8,0.9,2.6,3,1.7,4.8L74.8,46.3"/>
	<line class="st0" x1="68.2" y1="43.2" x2="68.4" y2="42.7"/>
	<polyline class="st0" points="66.9,45.8 67.5,53.1 73.6,48.9 70.2,47.5 	"/>
	<polyline class="st0" points="81.8,15.6 90.3,19.6 84.1,35.5 	"/>
</g>
</svg>
