<?xml version="1.0" encoding="UTF-8"?><svg id="b" xmlns="http://www.w3.org/2000/svg" viewBox="0 0 217.7 63.1"><g id="c"><path d="m55.9,0h6.5v34.4c0,1.6.2,2.4,1.9,2.4s.3,0,.6,0l.5,4.8c-1,.3-2.1.5-3.8.5-4.5,0-5.7-3-5.7-7.6V0Z" style="fill:#171b1e; stroke-width:0px;"/><path d="m90.2,31.5c0,6.8-4.4,10.7-11.5,10.7s-11.4-3.9-11.4-10.7,4.3-10.6,11.4-10.6,11.5,3.8,11.5,10.6Zm-16.5,0c0,3.1,1.6,5.5,5,5.5s5-2.5,5-5.5-1.6-5.4-5-5.4-5,2.3-5,5.4Z" style="fill:#171b1e; stroke-width:0px;"/><path d="m102.9,21c4,0,5.9,1.5,6.5,2.7v-2.1h6.5v20.1c0,6.6-4.5,10.6-12.4,10.6s-8.1-1.1-10.6-3.6l3.2-4c2.5,2,5.1,2.5,7.2,2.5s6.1-1.4,6.1-5.4v-2.1c-.6,1.1-3.1,2.6-6.6,2.6-6.4,0-9.9-4.2-9.9-10.5s3.6-10.7,9.9-10.7Zm2,16.1c2.8,0,5-1.9,5-5.4s-2.1-5.5-5-5.5-4.9,2-4.9,5.5,2,5.4,4.9,5.4Z" style="fill:#171b1e; stroke-width:0px;"/><path d="m127.8,15.7c0,2.4-1.7,3.8-3.9,3.8s-3.8-1.4-3.8-3.8,1.7-3.8,3.8-3.8,3.9,1.6,3.9,3.8Zm-7.1,5.9h6.5v12.7c0,1.6.2,2.4,1.9,2.4s.3,0,.6,0l.5,4.9c-1,.3-2.1.5-3.8.5-4.5,0-5.7-3.1-5.7-7.7v-12.7Z" style="fill:#171b1e; stroke-width:0px;"/><path d="m138.9,27.1c0,2.7,9.8,1.4,9.8,8.6s-4,6.5-8.7,6.5-6.5-.5-8.5-1.4l1.4-4.4c2.1.8,4.3,1.2,6.3,1.2s3.2-.5,3.2-1.6c0-2.9-9.8-1.3-9.8-8.6s3.6-6.3,8.2-6.3,5.1.6,7.6,1.6l-1.4,4.3c-1.6-.7-3.9-1.3-5.5-1.3s-2.7.5-2.7,1.5Z" style="fill:#171b1e; stroke-width:0px;"/><path d="m153.9,35.2v-8.7h-2.7v-5h2.7v-5.1h6.5v5.1h4v5h-4v6.4c0,2.9.7,3.5,2.2,3.5s1-.1,1.4-.2l.8,5c-2.5.8-3.4.9-5.4.9-3,0-5.5-1.3-5.5-7Z" style="fill:#171b1e; stroke-width:0px;"/><path d="m175.5,15.7c0,2.4-1.7,3.8-3.9,3.8s-3.8-1.4-3.8-3.8,1.7-3.8,3.8-3.8,3.9,1.6,3.9,3.8Zm-7.1,5.9h6.5v12.7c0,1.6.2,2.4,1.9,2.4s.3,0,.6,0l.5,4.9c-1,.3-2.1.5-3.8.5-4.5,0-5.7-3.1-5.7-7.7v-12.7Z" style="fill:#171b1e; stroke-width:0px;"/><path d="m191.2,36.7c1.6,0,2.8-.6,3.9-1.3l3.6,3.8c-2.1,2.1-5,3.1-8.1,3.1-6.8,0-10.9-4.3-10.9-10.6s4.2-10.6,10.9-10.6,6.1.9,8.1,3l-3.8,3.8c-1-.8-2.2-1.3-3.8-1.3-3.2,0-5,2.1-5,5.1s1.8,5.1,5,5.1Z" style="fill:#171b1e; stroke-width:0px;"/><path d="m207.9,27.1c0,2.7,9.8,1.4,9.8,8.6s-4,6.5-8.7,6.5-6.5-.5-8.5-1.4l1.4-4.4c2.1.8,4.3,1.2,6.3,1.2s3.2-.5,3.2-1.6c0-2.9-9.8-1.3-9.8-8.6s3.6-6.3,8.2-6.3,5.1.6,7.6,1.6l-1.4,4.3c-1.6-.7-3.9-1.3-5.5-1.3s-2.7.5-2.7,1.5Z" style="fill:#171b1e; stroke-width:0px;"/><polygon points="35.5 39.4 49.9 21.6 33.4 21.6 27.2 29.3 35.5 39.4" style="fill:#00a39e; stroke-width:0px;"/><polygon points="33.4 42 25.1 31.9 25.1 31.9 16.6 21.6 .8 21.6 17.3 41.7 0 63.1 16.4 63.1 25.6 51.8 34.9 63.1 50.7 63.1 33.4 42 33.4 42" style="fill:#171b1e; stroke-width:0px;"/></g></svg>