<svg xmlns="http://www.w3.org/2000/svg" viewBox="0 0 322.7 51.77"><defs><style>.cls-1{fill:#ffe800;}.cls-2{fill:#1d1d1b;}</style></defs><g id="Ebene_2" data-name="Ebene 2"><g id="Ebene_2-2" data-name="Ebene 2"><rect class="cls-1" x="302.25" y="43.78" width="20.44" height="7.92" rx="3.96"/><rect class="cls-2" x="289.43" y="13.61" width="33.26" height="7.92" rx="3.96"/><path class="cls-2" d="M133.91,47.31v.36a4,4,0,1,1-7.92,0V4a4,4,0,0,1,7.92,0V18.15a17.62,17.62,0,0,1,12-4.54c10.37,0,18.22,8.42,18.22,19.08s-7.85,19.08-18.22,19.08A17.9,17.9,0,0,1,133.91,47.31Zm22.18-14.62C156.09,26,151.2,21,145,21s-10.87,4.83-11.09,11.24v.5c0,6.7,4.9,11.74,11.09,11.74S156.09,39.39,156.09,32.69Z"/><path class="cls-2" d="M168.47,32.69a19.09,19.09,0,0,1,38.17,0,19.09,19.09,0,0,1-38.17,0Zm30.17,0c0-6.48-4.75-11.74-11.09-11.74s-11.08,5.26-11.08,11.74,4.75,11.74,11.08,11.74S198.64,39.1,198.64,32.69Z"/><path class="cls-2" d="M212.54,17.64a4,4,0,0,1,7.92,0V35.21c0,6,3.67,9.22,8.28,9.22S237,41.26,237,35.21V17.64a3.91,3.91,0,0,1,4-4,4,4,0,0,1,4,4V34.92c0,10.3-7.13,16.85-16.2,16.85s-16.2-6.55-16.2-16.85Z"/><path class="cls-2" d="M252.28,30.39c0-10.3,7.13-16.78,16.2-16.78s16.2,6.48,16.2,16.78V47.67a4,4,0,0,1-4,4,4,4,0,0,1-4-4V30.1c0-6-3.67-9.15-8.28-9.15s-8.28,3.17-8.28,9.15V47.67a4,4,0,1,1-7.92,0Z"/><circle class="cls-1" cx="114.69" cy="47.74" r="3.96"/><path class="cls-2" d="M0,32.62A18.75,18.75,0,0,1,19.08,13.54,18.71,18.71,0,0,1,38.16,32.62,18.71,18.71,0,0,1,19.08,51.7,18.75,18.75,0,0,1,0,32.62Zm30.17,0c0-6.48-4.75-11.74-11.09-11.74S8,26.14,8,32.62s4.76,11.74,11.09,11.74S30.17,39,30.17,32.62Z"/><path class="cls-2" d="M44.06,17.57a4,4,0,0,1,7.93,0V35.14c0,6,3.67,9.22,8.28,9.22s8.28-3.17,8.28-9.22V17.57a3.91,3.91,0,0,1,4-4,4,4,0,0,1,4,4V34.85c0,10.3-7.13,16.85-16.2,16.85S44.06,45.15,44.06,34.85Z"/><path class="cls-2" d="M79.42,17.93a3.63,3.63,0,0,1,3.67-3.67h2.59V8.86a4,4,0,1,1,7.92,0v5.4H102a3.64,3.64,0,0,1,3.67,3.67A3.69,3.69,0,0,1,102,21.6H93.6v13c0,6.34,3.53,9.58,8.43,9.58a3.71,3.71,0,0,1,0,7.42c-9.29,0-16.35-6.55-16.35-17v-13H83.09A3.68,3.68,0,0,1,79.42,17.93Z"/><rect class="cls-2" x="282.4" y="28.69" width="47.33" height="7.93" rx="3.96" transform="translate(84.13 245.93) rotate(-49.95)"/></g></g></svg>