<?xml version="1.0" encoding="UTF-8"?><svg id="b" xmlns="http://www.w3.org/2000/svg" viewBox="0 0 271.2 63.1"><g id="c"><path d="m62.4,41.7h-6.5v-20.1h6.5v2.6c1.4-2.1,3.5-3.2,5.7-3.2s2.3.4,3.2,1l-1.7,5.3c-.8-.3-1.7-.5-2.5-.5-2.5,0-4.7,1.4-4.7,6v9Z" style="fill:#171b1e; stroke-width:0px;"/><path d="m82.5,21c7.6,0,10.6,5,10.6,10.9s0,1.3-.1,1.7h-14.8c0,2.7,2.4,3.8,5.7,3.8s4.4-.5,6.2-1.4l2.4,4c-.9.6-4.2,2.3-9.2,2.3-8.4,0-11.7-4.9-11.7-10.5s3.4-10.7,11-10.7Zm-4.3,8.4h8.5c0-2.3-1.7-3.9-4.2-3.9s-4.2,1.6-4.3,3.9Z" style="fill:#171b1e; stroke-width:0px;"/><path d="m105.8,21c3.9,0,5.8,1.4,6.5,2.6v-2h6.5v20.1h-6.5v-1.9c-.7,1.1-3.1,2.5-6.5,2.5-6.4,0-9.9-4.2-9.9-10.5s3.6-10.7,9.9-10.7Zm2,16.1c2.8,0,5-1.9,5-5.4s-2.1-5.5-5-5.5-4.9,2-4.9,5.5,2,5.4,4.9,5.4Z" style="fill:#171b1e; stroke-width:0px;"/><path d="m123.5,0h6.5v34.4c0,1.6.2,2.4,1.9,2.4s.3,0,.6,0l.5,4.8c-1,.3-2.1.5-3.8.5-4.5,0-5.7-3-5.7-7.6V0Z" style="fill:#171b1e; stroke-width:0px;"/><path d="m143.4,38.6c0,2.1-1.7,3.8-3.9,3.8s-3.8-1.7-3.8-3.8,1.7-3.9,3.8-3.9,3.9,1.7,3.9,3.9Z" style="fill:#171b1e; stroke-width:0px;"/><path d="m158,21c7.6,0,10.6,5,10.6,10.9s0,1.3-.1,1.7h-14.8c0,2.7,2.4,3.8,5.7,3.8s4.4-.5,6.2-1.4l2.4,4c-.9.6-4.2,2.3-9.2,2.3-8.4,0-11.7-4.9-11.7-10.5s3.4-10.7,11-10.7Zm-4.3,8.4h8.5c0-2.3-1.7-3.9-4.2-3.9s-4.2,1.6-4.3,3.9Z" style="fill:#171b1e; stroke-width:0px;"/><path d="m178.1,27.1c0,2.7,9.8,1.4,9.8,8.6s-4,6.5-8.7,6.5-6.5-.5-8.5-1.4l1.4-4.4c2.1.8,4.3,1.2,6.3,1.2s3.2-.5,3.2-1.6c0-2.9-9.8-1.3-9.8-8.6s3.6-6.3,8.2-6.3,5.1.6,7.6,1.6l-1.4,4.3c-1.6-.7-3.9-1.3-5.5-1.3s-2.7.5-2.7,1.5Z" style="fill:#171b1e; stroke-width:0px;"/><path d="m193.2,35.2v-8.7h-2.7v-5h2.7v-5.1h6.5v5.1h4v5h-4v6.4c0,2.9.7,3.5,2.2,3.5s1-.1,1.4-.2l.8,5c-2.5.8-3.4.9-5.4.9-3,0-5.5-1.3-5.5-7Z" style="fill:#171b1e; stroke-width:0px;"/><path d="m216.7,21c3.9,0,5.8,1.4,6.5,2.6v-2h6.5v20.1h-6.5v-1.9c-.7,1.1-3.1,2.5-6.5,2.5-6.4,0-9.9-4.2-9.9-10.5s3.6-10.7,9.9-10.7Zm2,16.1c2.8,0,5-1.9,5-5.4s-2.1-5.5-5-5.5-4.9,2-4.9,5.5,2,5.4,4.9,5.4Z" style="fill:#171b1e; stroke-width:0px;"/><path d="m236,35.2v-8.7h-2.7v-5h2.7v-5.1h6.5v5.1h4v5h-4v6.4c0,2.9.7,3.5,2.2,3.5s1-.1,1.4-.2l.8,5c-2.5.8-3.4.9-5.4.9-3,0-5.5-1.3-5.5-7Z" style="fill:#171b1e; stroke-width:0px;"/><path d="m260.5,21c7.6,0,10.6,5,10.6,10.9s0,1.3-.1,1.7h-14.8c0,2.7,2.4,3.8,5.7,3.8s4.4-.5,6.2-1.4l2.4,4c-.9.6-4.2,2.3-9.2,2.3-8.4,0-11.7-4.9-11.7-10.5s3.4-10.7,11-10.7Zm-4.3,8.4h8.5c0-2.3-1.7-3.9-4.2-3.9s-4.2,1.6-4.3,3.9Z" style="fill:#171b1e; stroke-width:0px;"/><polygon points="35.5 39.4 49.9 21.6 33.4 21.6 27.2 29.3 35.5 39.4" style="fill:#6700a3; stroke-width:0px;"/><polygon points="33.4 42 25.1 31.9 25.1 31.9 16.6 21.6 .8 21.6 17.3 41.7 0 63.1 16.4 63.1 25.6 51.8 34.9 63.1 50.7 63.1 33.4 42 33.4 42" style="fill:#171b1e; stroke-width:0px;"/></g></svg>