<?xml version="1.0" encoding="utf-8"?>
<!-- Generator: Adobe Illustrator 27.9.0, SVG Export Plug-In . SVG Version: 6.00 Build 0)  -->
<svg version="1.1" id="Layer_1" xmlns="http://www.w3.org/2000/svg" xmlns:xlink="http://www.w3.org/1999/xlink" x="0px" y="0px"
	 viewBox="0 0 128 64" style="enable-background:new 0 0 128 64;" xml:space="preserve">
<style type="text/css">
	.st0{fill:none;stroke:#006AA6;stroke-width:2;stroke-linecap:round;stroke-linejoin:round;stroke-miterlimit:10;}
</style>
<g>
	<path class="st0" d="M70.5,47.9l4.6,2.9c0.5,0.4,2.4,1,3.3-0.2c1.1-1.2,0.8-2.4-0.1-3.2l-9.6-6c-3.7,2.5-6.9,1.8-8.9,0.8
		c-1.3-0.7-1.3-2.5-0.1-3.2l8.1-4.8c4.5-2.6,9.3,1.2,9.3,1.2l4.7-2l5.5,9.3l-9,4.8"/>
	<path class="st0" d="M64.7,36l-2-1.5c-1.5-1.2-3.2-2-5.6-1.1l-6.6,2.5l-4.4-2.4L40.4,42l6.6,4.5"/>
	<path class="st0" d="M51,48.4l-2.1,1.8c-0.8,0.7-2,0.6-2.7-0.2L46,49.8c-0.7-0.8-0.6-2,0.2-2.7l2.1-1.8c0.8-0.7,2-0.6,2.7,0.2
		l0.2,0.2C51.9,46.5,51.9,47.7,51,48.4z"/>
	<path class="st0" d="M54.6,50.9l-2.9,2.5c-0.8,0.7-2,0.6-2.7-0.2L48.7,53c-0.7-0.8-0.6-2,0.2-2.7l2.9-2.5c0.8-0.7,2-0.6,2.7,0.2
		l0.2,0.2C55.5,49,55.4,50.2,54.6,50.9z"/>
	<path class="st0" d="M57.7,53.8l-3.2,2.8c-0.8,0.7-2,0.6-2.7-0.2l-0.2-0.2c-0.7-0.8-0.6-2,0.2-2.7l3.2-2.8c0.8-0.7,2-0.6,2.7,0.2
		l0.2,0.2C58.6,51.9,58.5,53.1,57.7,53.8z"/>
	<path class="st0" d="M60.6,56.8l-1.5,1.3c-0.8,0.7-2,0.6-2.7-0.2l-0.2-0.2c-0.7-0.8-0.6-2,0.2-2.7l1.5-1.3c0.8-0.7,2-0.6,2.7,0.2
		l0.2,0.2C61.5,54.9,61.5,56.1,60.6,56.8z"/>
	<path class="st0" d="M67.2,50.8l5.1,3.5c0.5,0.4,1.1,0.5,1.7,0.4c0.5-0.1,0.9-0.3,1.3-0.8c0.7-0.9,0.7-2.5-0.2-3.2l-4.6-2.9"/>
	<path class="st0" d="M64.6,53.6l4.1,3.2c0.4,0.3,1,0.5,1.5,0.4c0.4-0.1,0.8-0.3,1.1-0.6c0.7-0.8,0.7-2.4-0.1-3l-4-2.7"/>
	<path class="st0" d="M64.6,53.6l1.7,1.3c1.8,1.4,0.5,3,0.5,3s-1.2,1.8-3.7,0.2l-2.3-1.5"/>
	<path class="st0" d="M46.2,33.4l1-1.4c0.4-0.6,0.2-1.4-0.4-1.8l-2.7-1.6c-0.6-0.4-1.3-0.2-1.7,0.4L35,40.3
		c-0.4,0.6-0.2,1.4,0.4,1.8l2.6,1.6c0.6,0.4,1.4,0.2,1.7-0.4l0.8-1.3"/>
	<path class="st0" d="M81.8,33.3l-1-1.4c-0.4-0.6-0.2-1.4,0.4-1.8l2.7-1.6c0.6-0.4,1.3-0.2,1.7,0.4L93,41.2c0.4,0.6,0.2,1.4-0.4,1.8
		L90,44.6c-0.6,0.4-1.4,0.2-1.7-0.4l-0.8-1.3"/>
	<polyline class="st0" points="72.6,33.4 72.6,23.8 80.6,23.8 64.6,5.2 48.6,23.8 56.6,23.8 56.6,33.5 	"/>
	<polyline class="st0" points="70.9,12.6 77.2,5.2 93.2,23.8 85.2,23.8 85.2,28.3 	"/>
	<polyline class="st0" points="43.9,28.6 43.9,23.8 35.9,23.8 51.9,5.2 58.2,12.6 	"/>
</g>
</svg>
