<?xml version="1.0" encoding="UTF-8"?><svg id="b" xmlns="http://www.w3.org/2000/svg" viewBox="0 0 577.4 406.3"><g id="c"><path d="m495.8,169.2c0,.5-.1,1-.3,1.4-.2.4-.4.8-.8,1.1-.3.3-.7.5-1.1.7-.4.2-.9.2-1.5.2s-1.1-.1-1.6-.3-.9-.5-1.2-.9-.6-.9-.7-1.5-.3-1.2-.3-1.9v-1.4c0-.7,0-1.3.3-1.9s.4-1.1.8-1.5c.3-.4.7-.7,1.2-.9.5-.2,1-.3,1.6-.3s1.1,0,1.5.2c.4.2.8.4,1.1.7s.6.7.7,1.1c.2.4.3.9.3,1.5h-2c0-.3,0-.6-.1-.8,0-.2-.2-.4-.3-.6-.1-.2-.3-.3-.5-.3s-.5-.1-.8-.1-.6,0-.8.2c-.2.1-.4.3-.6.6s-.3.6-.3.9c0,.4-.1.8-.1,1.3v1.4c0,1,.1,1.8.4,2.2.3.5.7.7,1.4.7s.9-.1,1.2-.4.5-.7.5-1.3h2Z" style="fill:#1d252c; stroke-width:0px;"/><path d="m500.9,170.9h4.8v1.6h-6.8v-10.3h2v8.7Z" style="fill:#1d252c; stroke-width:0px;"/><path d="m516.1,168.1c0,.7,0,1.3-.3,1.8-.2.6-.4,1-.8,1.4-.3.4-.7.7-1.2.9s-1,.3-1.6.3-1.1-.1-1.6-.3-.9-.5-1.2-.9-.6-.9-.7-1.4c-.2-.6-.2-1.2-.2-1.8v-1.5c0-.7,0-1.3.2-1.8.2-.6.4-1,.7-1.4s.7-.7,1.2-.9,1-.3,1.6-.3,1.1.1,1.6.3.9.5,1.2.9.6.9.8,1.4c.2.6.3,1.2.3,1.8v1.5Zm-2-1.5c0-.4,0-.8-.1-1.2s-.2-.7-.3-.9-.3-.5-.6-.6c-.2-.1-.5-.2-.8-.2s-.6,0-.8.2c-.2.1-.4.3-.5.6s-.2.6-.3.9,0,.7,0,1.2v1.5c0,.4,0,.8,0,1.2s.2.7.3.9c.1.3.3.5.5.6.2.1.5.2.8.2s.6,0,.8-.2c.2-.1.4-.3.6-.6.1-.3.3-.6.3-.9s.1-.7.1-1.2v-1.5Z" style="fill:#1d252c; stroke-width:0px;"/><path d="m525.9,162.2v6.8c0,.6,0,1.1-.2,1.5-.2.4-.4.8-.7,1.1-.3.3-.7.5-1.1.7s-.9.2-1.5.2-1,0-1.4-.2-.8-.4-1.1-.7c-.3-.3-.5-.7-.7-1.1-.2-.5-.2-1-.2-1.5v-6.8h2v6.8c0,.7.1,1.2.4,1.5s.6.5,1,.5.9-.2,1.1-.5.4-.8.4-1.5v-6.8h2Z" style="fill:#1d252c; stroke-width:0px;"/><path d="m529.1,172.5v-10.3h2.7c.7,0,1.3.1,1.9.4s1,.6,1.4,1,.7.9.9,1.5.3,1.2.3,1.9v.8c0,.7-.1,1.3-.3,1.9-.2.6-.5,1.1-.9,1.5s-.9.7-1.4,1c-.5.2-1.1.3-1.8.3h-2.8Zm2-8.7v7.1h.8c.4,0,.7,0,1-.2s.5-.3.7-.6.4-.6.5-1c.1-.4.2-.8.2-1.3v-.9c0-.5,0-.9-.2-1.3-.1-.4-.3-.7-.5-1-.2-.3-.5-.5-.8-.6-.3-.2-.7-.2-1.1-.2h-.7Z" style="fill:#1d252c; stroke-width:0px;"/><path d="m544.3,168.4l.7-6.2h1.8l-1.4,10.3h-1.8l-1-6.1-.9,6.1h-1.8l-1.4-10.3h1.8l.7,6.2.9-6.2h1.4l.9,6.2Z" style="fill:#1d252c; stroke-width:0px;"/><path d="m556.6,168.1c0,.7,0,1.3-.3,1.8-.2.6-.4,1-.8,1.4-.3.4-.7.7-1.2.9s-1,.3-1.6.3-1.1-.1-1.6-.3-.9-.5-1.2-.9-.6-.9-.7-1.4c-.2-.6-.2-1.2-.2-1.8v-1.5c0-.7,0-1.3.2-1.8.2-.6.4-1,.7-1.4s.7-.7,1.2-.9,1-.3,1.6-.3,1.1.1,1.6.3.9.5,1.2.9.6.9.8,1.4c.2.6.3,1.2.3,1.8v1.5Zm-2-1.5c0-.4,0-.8-.1-1.2s-.2-.7-.3-.9-.3-.5-.6-.6c-.2-.1-.5-.2-.8-.2s-.6,0-.8.2c-.2.1-.4.3-.5.6s-.2.6-.3.9,0,.7,0,1.2v1.5c0,.4,0,.8,0,1.2s.2.7.3.9c.1.3.3.5.5.6.2.1.5.2.8.2s.6,0,.8-.2c.2-.1.4-.3.6-.6.1-.3.3-.6.3-.9s.1-.7.1-1.2v-1.5Z" style="fill:#1d252c; stroke-width:0px;"/><path d="m563.1,168.6h-1.5v3.8h-2v-10.3h3.5c.6,0,1.1,0,1.5.2s.9.3,1.2.6c.3.3.6.6.8,1,.2.4.3.8.3,1.3s0,.7-.1,1c0,.3-.2.6-.4.8s-.4.4-.6.6c-.2.2-.5.3-.8.5l2.2,4.3h0c0,0-2.1,0-2.1,0l-1.9-3.8Zm-1.5-1.6h1.5c.6,0,1-.1,1.3-.4.3-.3.5-.7.5-1.2s-.1-.9-.4-1.2c-.3-.3-.7-.4-1.3-.4h-1.5v3.2Z" style="fill:#1d252c; stroke-width:0px;"/><path d="m573.2,165.9l1.8-3.7h2.3l-2.9,5.1,3,5.2h-2.3l-1.9-3.7-1.9,3.7h-2.3l3-5.2-2.9-5.1h2.3l1.8,3.7Z" style="fill:#1d252c; stroke-width:0px;"/><path d="m490.7,184c0-.2,0-.4,0-.5,0-.2.2-.3.3-.4.1-.1.3-.2.4-.3.2,0,.4-.1.6-.1s.4,0,.6.1c.2,0,.3.2.4.3.1.1.2.3.3.4,0,.2,0,.3,0,.5s0,.3,0,.5-.2.3-.3.4c-.1.1-.3.2-.4.3-.2,0-.4,0-.6,0s-.4,0-.6,0c-.2,0-.3-.2-.4-.3-.1-.1-.2-.3-.3-.4s0-.3,0-.5Z" style="fill:#0069a7; stroke-width:0px;"/><path d="m490.7,184c0-.2,0-.4,0-.5,0-.2.2-.3.3-.4.1-.1.3-.2.4-.3.2,0,.4-.1.6-.1s.4,0,.6.1c.2,0,.3.2.4.3.1.1.2.3.3.4,0,.2,0,.3,0,.5s0,.3,0,.5-.2.3-.3.4c-.1.1-.3.2-.4.3-.2,0-.4,0-.6,0s-.4,0-.6,0c-.2,0-.3-.2-.4-.3-.1-.1-.2-.3-.3-.4s0-.3,0-.5Z" style="fill:#0069a7; stroke-width:0px;"/><path d="m499.2,174.9h6v1.6h-2v7.1h2v1.6h-6v-1.6h2v-7.1h-2v-1.6Z" style="fill:#0069a7; stroke-width:0px;"/><path d="m515.7,185.2h-2l-2.9-6.6v6.6h-2v-10.3h2l2.8,6.6v-6.6h2v10.3Z" style="fill:#0069a7; stroke-width:0px;"/><path d="m526.6,176.5h-3.2v8.7h-2v-8.7h-3.1v-1.6h8.3v1.6Z" style="fill:#0069a7; stroke-width:0px;"/><path d="m535.5,180.6h-4.2v2.9h4.9v1.6h-6.9v-10.3h6.9v1.6h-4.9v2.6h4.2v1.6Z" style="fill:#0069a7; stroke-width:0px;"/><path d="m542.8,181.3h-1.5v3.8h-2v-10.3h3.5c.6,0,1.1,0,1.5.2s.9.3,1.2.6c.3.3.6.6.8,1,.2.4.3.8.3,1.3s0,.7-.1,1c0,.3-.2.6-.4.8s-.4.4-.6.6c-.2.2-.5.3-.8.5l2.2,4.3h0c0,0-2.1,0-2.1,0l-1.9-3.8Zm-1.5-1.6h1.5c.6,0,1-.1,1.3-.4.3-.3.5-.7.5-1.2s-.1-.9-.4-1.2c-.3-.3-.7-.4-1.3-.4h-1.5v3.2Z" style="fill:#0069a7; stroke-width:0px;"/><path d="m554.5,183h-3.1l-.6,2.2h-2.1l3.4-10.3h1.8l3.3,10.3h-2.1l-.6-2.2Zm-2.6-1.7h2.1l-1.1-3.8-1.1,3.8Z" style="fill:#0069a7; stroke-width:0px;"/><path d="m566.7,181.9c0,.5-.1,1-.3,1.4-.2.4-.4.8-.8,1.1-.3.3-.7.5-1.1.7-.4.2-.9.2-1.5.2s-1.1-.1-1.6-.3-.9-.5-1.2-.9-.6-.9-.7-1.5-.3-1.2-.3-1.9v-1.4c0-.7,0-1.3.3-1.9s.4-1.1.8-1.5c.3-.4.7-.7,1.2-.9.5-.2,1-.3,1.6-.3s1.1,0,1.5.2c.4.2.8.4,1.1.7s.6.7.7,1.1c.2.4.3.9.3,1.5h-2c0-.3,0-.6-.1-.8,0-.2-.2-.4-.3-.6-.1-.2-.3-.3-.5-.3s-.5-.1-.8-.1-.6,0-.8.2c-.2.1-.4.3-.6.6s-.3.6-.3.9c0,.4-.1.8-.1,1.3v1.4c0,1,.1,1.8.4,2.2.3.5.7.7,1.4.7s.9-.1,1.2-.4.5-.7.5-1.3h2Z" style="fill:#0069a7; stroke-width:0px;"/><path d="m577.2,176.5h-3.2v8.7h-2v-8.7h-3.1v-1.6h8.3v1.6Z" style="fill:#0069a7; stroke-width:0px;"/><polygon points="458.2 150.8 467.5 152.5 467.5 158.8 458.2 165.4 458.2 150.8" style="fill:#0069a7; stroke-width:0px;"/><polygon points="447.9 158.8 447.9 152.5 457.2 150.8 457.2 165.4 447.9 158.8" style="fill:#1d252c; stroke-width:0px;"/><polygon points="458.2 167.3 467.5 173.9 467.5 180.2 458.2 181.9 458.2 167.3" style="fill:#0069a7; stroke-width:0px;"/><polygon points="447.9 180.2 447.9 173.9 457.2 167.3 457.2 181.9 447.9 180.2" style="fill:#1d252c; stroke-width:0px;"/><polygon points="458.4 182.9 467.7 181.2 469.9 187.1 463.6 196.5 458.4 182.9" style="fill:#0069a7; stroke-width:0px;"/><polygon points="458.8 166.5 472.5 161.6 474 170.9 468.1 173 458.8 166.5" style="fill:#0069a7; stroke-width:0px;"/><polygon points="445.4 187.1 447.7 181.2 457 182.9 451.8 196.5 445.4 187.1" style="fill:#1d252c; stroke-width:0px;"/><polygon points="441.3 170.9 442.9 161.6 456.6 166.5 447.3 173 441.3 170.9" style="fill:#1d252c; stroke-width:0px;"/><rect x="432.2" y="148.2" width="51" height="51" style="fill:none; stroke-width:0px;"/><path d="m7.5,169.2c0,.5-.1,1-.3,1.4-.2.4-.4.8-.8,1.1-.3.3-.7.5-1.1.7s-.9.2-1.5.2-1.1-.1-1.6-.3-.9-.5-1.2-.9-.6-.9-.7-1.5S0,168.7,0,168v-1.4C0,166,0,165.3.3,164.8s.4-1.1.8-1.5c.3-.4.7-.7,1.2-.9.5-.2,1-.3,1.6-.3s1.1,0,1.5.2c.4.2.8.4,1.1.7s.6.7.7,1.1c.2.4.3.9.3,1.5h-2c0-.3,0-.6-.1-.8,0-.2-.2-.4-.3-.6-.1-.2-.3-.3-.5-.3s-.5-.1-.8-.1-.6,0-.8.2c-.2.1-.4.3-.6.6s-.3.6-.3.9c0,.4-.1.8-.1,1.3v1.4c0,1,.1,1.8.4,2.2.3.5.7.7,1.4.7s.9-.1,1.2-.4.5-.7.5-1.3h2Z" style="fill:#1d252c; stroke-width:0px;"/><path d="m12.6,170.9h4.8v1.6h-6.8v-10.3h2v8.7Z" style="fill:#1d252c; stroke-width:0px;"/><path d="m27.8,168.1c0,.7,0,1.3-.3,1.8-.2.6-.4,1-.8,1.4-.3.4-.7.7-1.2.9s-1,.3-1.6.3-1.1-.1-1.6-.3-.9-.5-1.2-.9-.6-.9-.7-1.4c-.2-.6-.2-1.2-.2-1.8v-1.5c0-.7,0-1.3.2-1.8.2-.6.4-1,.7-1.4s.7-.7,1.2-.9,1-.3,1.6-.3,1.1.1,1.6.3.9.5,1.2.9.6.9.8,1.4c.2.6.3,1.2.3,1.8v1.5Zm-2-1.5c0-.4,0-.8-.1-1.2s-.2-.7-.3-.9-.3-.5-.6-.6c-.2-.1-.5-.2-.8-.2s-.6,0-.8.2c-.2.1-.4.3-.5.6s-.2.6-.3.9,0,.7,0,1.2v1.5c0,.4,0,.8,0,1.2s.2.7.3.9c.1.3.3.5.5.6.2.1.5.2.8.2s.6,0,.8-.2c.2-.1.4-.3.6-.6.1-.3.3-.6.3-.9s.1-.7.1-1.2v-1.5Z" style="fill:#1d252c; stroke-width:0px;"/><path d="m37.6,162.2v6.8c0,.6,0,1.1-.2,1.5-.2.4-.4.8-.7,1.1-.3.3-.7.5-1.1.7s-.9.2-1.5.2-1,0-1.4-.2-.8-.4-1.1-.7c-.3-.3-.5-.7-.7-1.1-.2-.5-.2-1-.2-1.5v-6.8h2v6.8c0,.7.1,1.2.4,1.5s.6.5,1,.5.9-.2,1.1-.5.4-.8.4-1.5v-6.8h2Z" style="fill:#1d252c; stroke-width:0px;"/><path d="m40.8,172.5v-10.3h2.7c.7,0,1.3.1,1.9.4s1,.6,1.4,1,.7.9.9,1.5.3,1.2.3,1.9v.8c0,.7-.1,1.3-.3,1.9-.2.6-.5,1.1-.9,1.5s-.9.7-1.4,1c-.5.2-1.1.3-1.8.3h-2.8Zm2-8.7v7.1h.8c.4,0,.7,0,1-.2s.5-.3.7-.6.4-.6.5-1c.1-.4.2-.8.2-1.3v-.9c0-.5,0-.9-.2-1.3-.1-.4-.3-.7-.5-1-.2-.3-.5-.5-.8-.6-.3-.2-.7-.2-1.1-.2h-.7Z" style="fill:#1d252c; stroke-width:0px;"/><path d="m56,168.4l.7-6.2h1.8l-1.4,10.3h-1.8l-1-6.1-.9,6.1h-1.8l-1.4-10.3h1.8l.7,6.2.9-6.2h1.4l.9,6.2Z" style="fill:#1d252c; stroke-width:0px;"/><path d="m68.3,168.1c0,.7,0,1.3-.3,1.8-.2.6-.4,1-.8,1.4-.3.4-.7.7-1.2.9s-1,.3-1.6.3-1.1-.1-1.6-.3-.9-.5-1.2-.9-.6-.9-.7-1.4c-.2-.6-.2-1.2-.2-1.8v-1.5c0-.7,0-1.3.2-1.8.2-.6.4-1,.7-1.4s.7-.7,1.2-.9,1-.3,1.6-.3,1.1.1,1.6.3.9.5,1.2.9.6.9.8,1.4c.2.6.3,1.2.3,1.8v1.5Zm-2-1.5c0-.4,0-.8-.1-1.2s-.2-.7-.3-.9-.3-.5-.6-.6c-.2-.1-.5-.2-.8-.2s-.6,0-.8.2c-.2.1-.4.3-.5.6s-.2.6-.3.9,0,.7,0,1.2v1.5c0,.4,0,.8,0,1.2s.2.7.3.9c.1.3.3.5.5.6.2.1.5.2.8.2s.6,0,.8-.2c.2-.1.4-.3.6-.6.1-.3.3-.6.3-.9s.1-.7.1-1.2v-1.5Z" style="fill:#1d252c; stroke-width:0px;"/><path d="m74.8,168.6h-1.5v3.8h-2v-10.3h3.5c.6,0,1.1,0,1.5.2s.9.3,1.2.6c.3.3.6.6.8,1,.2.4.3.8.3,1.3s0,.7-.1,1c0,.3-.2.6-.4.8s-.4.4-.6.6c-.2.2-.5.3-.8.5l2.2,4.3h0c0,0-2.1,0-2.1,0l-1.9-3.8Zm-1.5-1.6h1.5c.6,0,1-.1,1.3-.4.3-.3.5-.7.5-1.2s-.1-.9-.4-1.2c-.3-.3-.7-.4-1.3-.4h-1.5v3.2Z" style="fill:#1d252c; stroke-width:0px;"/><path d="m84.9,165.9l1.8-3.7h2.3l-2.9,5.1,3,5.2h-2.3l-1.9-3.7-1.9,3.7h-2.3l3-5.2-2.9-5.1h2.3l1.8,3.7Z" style="fill:#1d252c; stroke-width:0px;"/><path d="m13.2,184c0-.2,0-.4,0-.5,0-.2.2-.3.3-.4.1-.1.3-.2.4-.3.2,0,.4-.1.6-.1s.4,0,.6.1c.2,0,.3.2.4.3.1.1.2.3.3.4,0,.2,0,.3,0,.5s0,.3,0,.5-.2.3-.3.4c-.1.1-.3.2-.4.3s-.4,0-.6,0-.4,0-.6,0-.3-.2-.4-.3c-.1-.1-.2-.3-.3-.4s0-.3,0-.5Z" style="fill:#0069a7; stroke-width:0px;"/><path d="m28.5,181.9c0,.5-.1,1-.3,1.4-.2.4-.4.8-.8,1.1-.3.3-.7.5-1.1.7s-.9.2-1.5.2-1.1-.1-1.6-.3-.9-.5-1.2-.9-.6-.9-.7-1.5-.3-1.2-.3-1.9v-1.4c0-.7,0-1.3.3-1.9s.4-1.1.8-1.5c.3-.4.7-.7,1.2-.9.5-.2,1-.3,1.6-.3s1.1,0,1.5.2c.4.2.8.4,1.1.7s.6.7.7,1.1c.2.4.3.9.3,1.5h-2c0-.3,0-.6-.1-.8,0-.2-.2-.4-.3-.6-.1-.2-.3-.3-.5-.3s-.5-.1-.8-.1-.6,0-.8.2c-.2.1-.4.3-.6.6s-.3.6-.3.9c0,.4-.1.8-.1,1.3v1.4c0,1,.1,1.8.4,2.2.3.5.7.7,1.4.7s.9-.1,1.2-.4.5-.7.5-1.3h2Z" style="fill:#0069a7; stroke-width:0px;"/><path d="m38.6,180.8c0,.7,0,1.3-.3,1.8-.2.6-.4,1-.8,1.4-.3.4-.7.7-1.2.9s-1,.3-1.6.3-1.1-.1-1.6-.3-.9-.5-1.2-.9-.6-.9-.7-1.4c-.2-.6-.2-1.2-.2-1.8v-1.5c0-.7,0-1.3.2-1.8.2-.6.4-1,.7-1.4s.7-.7,1.2-.9,1-.3,1.6-.3,1.1.1,1.6.3.9.5,1.2.9.6.9.8,1.4c.2.6.3,1.2.3,1.8v1.5Zm-2-1.5c0-.4,0-.8-.1-1.2s-.2-.7-.3-.9-.3-.5-.6-.6c-.2-.1-.5-.2-.8-.2s-.6,0-.8.2c-.2.1-.4.3-.5.6s-.2.6-.3.9,0,.7,0,1.2v1.5c0,.4,0,.8,0,1.2s.2.7.3.9c.1.3.3.5.5.6.2.1.5.2.8.2s.6,0,.8-.2c.2-.1.4-.3.6-.6.1-.3.3-.6.3-.9s.1-.7.1-1.2v-1.5Z" style="fill:#0069a7; stroke-width:0px;"/><path d="m44,174.9l1,3.9,1.1-3.9h2.5v10.3h-1.8v-7.9c0,0-1.3,4.5-1.3,4.5h-1l-1.2-4.3v4.6c0,0,0,3,0,3h-1.8v-10.3h2.5Z" style="fill:#0069a7; stroke-width:0px;"/><path d="m53.8,181.4v3.8h-2v-10.3h3.5c.6,0,1.1,0,1.5.2s.8.4,1.2.7.6.6.7,1c.2.4.3.9.3,1.4s0,.9-.3,1.3c-.2.4-.4.7-.7,1-.3.3-.7.5-1.2.7-.5.2-1,.2-1.5.2h-1.5Zm0-1.6h1.5c.3,0,.5,0,.7-.1s.4-.2.5-.3c.1-.1.2-.3.3-.5s.1-.4.1-.6,0-.5-.1-.7c0-.2-.2-.4-.3-.5s-.3-.3-.5-.4c-.2,0-.5-.1-.7-.1h-1.5v3.3Z" style="fill:#0069a7; stroke-width:0px;"/><path d="m69,180.8c0,.7,0,1.3-.3,1.8-.2.6-.4,1-.8,1.4-.3.4-.7.7-1.2.9s-1,.3-1.6.3-1.1-.1-1.6-.3-.9-.5-1.2-.9-.6-.9-.7-1.4c-.2-.6-.2-1.2-.2-1.8v-1.5c0-.7,0-1.3.2-1.8.2-.6.4-1,.7-1.4s.7-.7,1.2-.9,1-.3,1.6-.3,1.1.1,1.6.3.9.5,1.2.9.6.9.8,1.4c.2.6.3,1.2.3,1.8v1.5Zm-2-1.5c0-.4,0-.8-.1-1.2s-.2-.7-.3-.9-.3-.5-.6-.6c-.2-.1-.5-.2-.8-.2s-.6,0-.8.2c-.2.1-.4.3-.5.6s-.2.6-.3.9,0,.7,0,1.2v1.5c0,.4,0,.8,0,1.2s.2.7.3.9c.1.3.3.5.5.6.2.1.5.2.8.2s.6,0,.8-.2c.2-.1.4-.3.6-.6.1-.3.3-.6.3-.9s.1-.7.1-1.2v-1.5Z" style="fill:#0069a7; stroke-width:0px;"/><path d="m77.3,182.5c0-.2,0-.4,0-.5,0-.2-.2-.3-.3-.4-.2-.1-.4-.3-.6-.4-.2-.1-.6-.2-.9-.3-.4-.1-.9-.3-1.3-.5s-.8-.4-1.1-.7c-.3-.3-.6-.6-.7-.9-.2-.3-.3-.7-.3-1.2s0-.8.3-1.2.4-.7.8-.9c.3-.2.7-.4,1.2-.6s.9-.2,1.4-.2,1,0,1.5.2.8.4,1.1.7c.3.3.6.6.7,1,.2.4.3.8.3,1.3h-1.9c0-.2,0-.4-.1-.6,0-.2-.2-.4-.3-.5-.1-.1-.3-.2-.5-.3s-.5-.1-.8-.1-.5,0-.7,0-.4.2-.5.3c-.1.1-.2.3-.3.4,0,.2-.1.3-.1.5s0,.4.1.5.2.3.4.4c.2.1.4.2.7.3.3.1.6.2.9.3.5.1.9.3,1.3.5s.7.4,1,.7c.3.3.5.6.7.9s.2.7.2,1.2,0,.9-.3,1.2c-.2.4-.4.6-.8.9-.3.2-.7.4-1.1.6s-.9.2-1.5.2-.6,0-1,0-.6-.1-.9-.3c-.3-.1-.6-.3-.8-.5s-.5-.4-.7-.6c-.2-.2-.3-.5-.4-.8s-.2-.7-.2-1h2c0,.3,0,.6.2.8,0,.2.2.4.4.5s.4.2.6.3c.2,0,.5,0,.8,0s.5,0,.7,0c.2,0,.4-.1.5-.3.1-.1.3-.2.3-.4,0-.2.1-.3.1-.5Z" style="fill:#0069a7; stroke-width:0px;"/><path d="m88.4,180.6h-4.2v2.9h4.9v1.6h-6.9v-10.3h6.9v1.6h-4.9v2.6h4.2v1.6Z" style="fill:#0069a7; stroke-width:0px;"/><polygon points="104.2 173.2 105.9 163.9 112.2 163.9 118.7 173.2 104.2 173.2" style="fill:#0069a7; stroke-width:0px;"/><polygon points="105.9 183.5 104.2 174.2 118.7 174.2 112.2 183.5 105.9 183.5" style="fill:#1d252c; stroke-width:0px;"/><polygon points="120.7 173.2 127.3 163.9 133.6 163.9 135.3 173.2 120.7 173.2" style="fill:#1d252c; stroke-width:0px;"/><polygon points="104.2 193.8 105.9 184.5 112.2 184.5 118.7 193.8 104.2 193.8" style="fill:#0069a7; stroke-width:0px;"/><polygon points="120.7 193.8 127.3 184.5 133.6 184.5 135.3 193.8 120.7 193.8" style="fill:#1d252c; stroke-width:0px;"/><polygon points="127.3 183.5 120.7 174.2 135.3 174.2 133.6 183.5 127.3 183.5" style="fill:#0069a7; stroke-width:0px;"/><polygon points="105.9 162.8 104.2 153.6 118.7 153.6 112.2 162.8 105.9 162.8" style="fill:#1d252c; stroke-width:0px;"/><polygon points="127.3 162.8 120.7 153.6 135.3 153.6 133.6 162.8 127.3 162.8" style="fill:#0069a7; stroke-width:0px;"/><rect x="94.2" y="148.2" width="51" height="51" style="fill:none; stroke-width:0px;"/><path d="m495.8,242.1c0,.5-.1,1-.3,1.4s-.4.8-.8,1.1-.7.5-1.1.7c-.4.2-.9.2-1.5.2s-1.1-.1-1.6-.3-.9-.5-1.2-.9-.6-.9-.7-1.5-.3-1.2-.3-1.9v-1.4c0-.7,0-1.3.3-1.9s.4-1.1.8-1.5.7-.7,1.2-.9,1-.3,1.6-.3,1.1,0,1.5.2.8.4,1.1.7.6.7.7,1.1.3.9.3,1.5h-2c0-.3,0-.6-.1-.8s-.2-.4-.3-.6-.3-.3-.5-.3-.5-.1-.8-.1-.6,0-.8.2-.4.3-.6.6-.3.6-.3.9-.1.8-.1,1.3v1.4c0,1,.1,1.8.4,2.2s.7.7,1.4.7.9-.1,1.2-.4.5-.7.5-1.3h2Z" style="fill:#1d252c; stroke-width:0px;"/><path d="m500.9,243.7h4.8v1.6h-6.8v-10.3h2v8.7Z" style="fill:#1d252c; stroke-width:0px;"/><path d="m516.1,240.9c0,.7,0,1.3-.3,1.8s-.4,1-.8,1.4-.7.7-1.2.9-1,.3-1.6.3-1.1-.1-1.6-.3-.9-.5-1.2-.9-.6-.9-.7-1.4-.2-1.2-.2-1.8v-1.5c0-.7,0-1.3.2-1.8s.4-1,.7-1.4.7-.7,1.2-.9,1-.3,1.6-.3,1.1.1,1.6.3.9.5,1.2.9.6.9.8,1.4.3,1.2.3,1.8v1.5Zm-2-1.5c0-.4,0-.8-.1-1.2s-.2-.7-.3-.9-.3-.5-.6-.6-.5-.2-.8-.2-.6,0-.8.2-.4.3-.5.6-.2.6-.3.9,0,.7,0,1.2v1.5c0,.4,0,.8,0,1.2s.2.7.3.9.3.5.5.6.5.2.8.2.6,0,.8-.2.4-.3.6-.6.3-.6.3-.9.1-.7.1-1.2v-1.5Z" style="fill:#1d252c; stroke-width:0px;"/><path d="m525.9,235v6.8c0,.6,0,1.1-.2,1.5s-.4.8-.7,1.1-.7.5-1.1.7-.9.2-1.5.2-1,0-1.4-.2-.8-.4-1.1-.7-.5-.7-.7-1.1-.2-1-.2-1.5v-6.8h2v6.8c0,.7.1,1.2.4,1.5s.6.5,1,.5.9-.2,1.1-.5.4-.8.4-1.5v-6.8h2Z" style="fill:#1d252c; stroke-width:0px;"/><path d="m529.1,245.3v-10.3h2.7c.7,0,1.3.1,1.9.4s1,.6,1.4,1,.7.9.9,1.5.3,1.2.3,1.9v.8c0,.7-.1,1.3-.3,1.9s-.5,1.1-.9,1.5-.9.7-1.4,1-1.1.3-1.8.3h-2.8Zm2-8.7v7.1h.8c.4,0,.7,0,1-.2s.5-.3.7-.6.4-.6.5-1,.2-.8.2-1.3v-.9c0-.5,0-.9-.2-1.3s-.3-.7-.5-1-.5-.5-.8-.6-.7-.2-1.1-.2h-.7Z" style="fill:#1d252c; stroke-width:0px;"/><path d="m544.3,241.2l.7-6.2h1.8l-1.4,10.3h-1.8l-1-6.1-.9,6.1h-1.8l-1.4-10.3h1.8l.7,6.2.9-6.2h1.4l.9,6.2Z" style="fill:#1d252c; stroke-width:0px;"/><path d="m556.6,240.9c0,.7,0,1.3-.3,1.8s-.4,1-.8,1.4-.7.7-1.2.9-1,.3-1.6.3-1.1-.1-1.6-.3-.9-.5-1.2-.9-.6-.9-.7-1.4-.2-1.2-.2-1.8v-1.5c0-.7,0-1.3.2-1.8s.4-1,.7-1.4.7-.7,1.2-.9,1-.3,1.6-.3,1.1.1,1.6.3.9.5,1.2.9.6.9.8,1.4.3,1.2.3,1.8v1.5Zm-2-1.5c0-.4,0-.8-.1-1.2s-.2-.7-.3-.9-.3-.5-.6-.6-.5-.2-.8-.2-.6,0-.8.2-.4.3-.5.6-.2.6-.3.9,0,.7,0,1.2v1.5c0,.4,0,.8,0,1.2s.2.7.3.9.3.5.5.6.5.2.8.2.6,0,.8-.2.4-.3.6-.6.3-.6.3-.9.1-.7.1-1.2v-1.5Z" style="fill:#1d252c; stroke-width:0px;"/><path d="m563,241.4h-1.5v3.8h-2v-10.3h3.5c.6,0,1.1,0,1.5.2s.9.3,1.2.6.6.6.8,1,.3.8.3,1.3,0,.7-.1,1-.2.6-.4.8-.4.4-.6.6-.5.3-.8.5l2.2,4.3h0c0,0-2.1,0-2.1,0l-1.9-3.8Zm-1.5-1.6h1.5c.6,0,1-.1,1.3-.4s.5-.7.5-1.2-.1-.9-.4-1.2-.7-.4-1.3-.4h-1.5v3.2Z" style="fill:#1d252c; stroke-width:0px;"/><path d="m573.2,238.7l1.8-3.7h2.3l-2.9,5.1,3,5.2h-2.3l-1.9-3.7-1.9,3.7h-2.3l3-5.2-2.9-5.1h2.3l1.8,3.7Z" style="fill:#1d252c; stroke-width:0px;"/><path d="m490.7,256.8c0-.2,0-.4,0-.5s.2-.3.3-.4.3-.2.4-.3.4-.1.6-.1.4,0,.6.1.3.2.4.3.2.3.3.4,0,.3,0,.5,0,.3,0,.5-.2.3-.3.4-.3.2-.4.3c-.2,0-.4,0-.6,0s-.4,0-.6,0c-.2,0-.3-.2-.4-.3s-.2-.3-.3-.4,0-.3,0-.5Z" style="fill:#0069a7; stroke-width:0px;"/><path d="m505.9,254.7c0,.5-.1,1-.3,1.4s-.4.8-.8,1.1-.7.5-1.1.7c-.4.2-.9.2-1.5.2s-1.1-.1-1.6-.3-.9-.5-1.2-.9-.6-.9-.7-1.5-.3-1.2-.3-1.9v-1.4c0-.7,0-1.3.3-1.9s.4-1.1.8-1.5.7-.7,1.2-.9,1-.3,1.6-.3,1.1,0,1.5.2.8.4,1.1.7.6.7.7,1.1.3.9.3,1.5h-2c0-.3,0-.6-.1-.8s-.2-.4-.3-.6-.3-.3-.5-.3-.5-.1-.8-.1-.6,0-.8.2-.4.3-.6.6-.3.6-.3.9-.1.8-.1,1.3v1.4c0,1,.1,1.8.4,2.2s.7.7,1.4.7.9-.1,1.2-.4.5-.7.5-1.3h2Z" style="fill:#0069a7; stroke-width:0px;"/><path d="m516.1,253.6c0,.7,0,1.3-.3,1.8s-.4,1-.8,1.4-.7.7-1.2.9-1,.3-1.6.3-1.1-.1-1.6-.3-.9-.5-1.2-.9-.6-.9-.7-1.4-.2-1.2-.2-1.8v-1.5c0-.7,0-1.3.2-1.8s.4-1,.7-1.4.7-.7,1.2-.9,1-.3,1.6-.3,1.1.1,1.6.3.9.5,1.2.9.6.9.8,1.4.3,1.2.3,1.8v1.5Zm-2-1.5c0-.4,0-.8-.1-1.2s-.2-.7-.3-.9-.3-.5-.6-.6-.5-.2-.8-.2-.6,0-.8.2-.4.3-.5.6-.2.6-.3.9,0,.7,0,1.2v1.5c0,.4,0,.8,0,1.2s.2.7.3.9.3.5.5.6.5.2.8.2.6,0,.8-.2.4-.3.6-.6.3-.6.3-.9.1-.7.1-1.2v-1.5Z" style="fill:#0069a7; stroke-width:0px;"/><path d="m525.8,258h-2l-2.9-6.6v6.6h-2v-10.3h2l2.8,6.6v-6.6h2v10.3Z" style="fill:#0069a7; stroke-width:0px;"/><path d="m532.6,255.1l1.9-7.4h2.2l-3.1,10.3h-2l-3.1-10.3h2.2l1.9,7.4Z" style="fill:#0069a7; stroke-width:0px;"/><path d="m545.6,253.4h-4.2v2.9h4.9v1.6h-6.9v-10.3h6.9v1.6h-4.9v2.6h4.2v1.6Z" style="fill:#0069a7; stroke-width:0px;"/><path d="m552.9,254.1h-1.5v3.8h-2v-10.3h3.5c.6,0,1.1,0,1.5.2s.9.3,1.2.6.6.6.8,1,.3.8.3,1.3,0,.7-.1,1-.2.6-.4.8-.4.4-.6.6-.5.3-.8.5l2.2,4.3h0c0,0-2.1,0-2.1,0l-1.9-3.8Zm-1.5-1.6h1.5c.6,0,1-.1,1.3-.4s.5-.7.5-1.2-.1-.9-.4-1.2-.7-.4-1.3-.4h-1.5v3.2Z" style="fill:#0069a7; stroke-width:0px;"/><path d="m567.1,249.3h-3.2v8.7h-2v-8.7h-3.1v-1.6h8.3v1.6Z" style="fill:#0069a7; stroke-width:0px;"/><polygon points="438.4 256.3 436.7 247 451.2 247 444.7 256.3 438.4 256.3" style="fill:#0069a7; stroke-width:0px;"/><polygon points="436.7 246 438.4 236.7 444.7 236.7 451.2 246 436.7 246" style="fill:#1d252c; stroke-width:0px;"/><polygon points="445.5 256.9 452.1 247.6 457 261.3 447.7 262.8 445.5 256.9" style="fill:#1d252c; stroke-width:0px;"/><polygon points="445.5 236.1 447.7 230.1 457 231.7 452.1 245.4 445.5 236.1" style="fill:#0069a7; stroke-width:0px;"/><polygon points="464.1 246 470.7 236.7 477 236.7 478.7 246 464.1 246" style="fill:#0069a7; stroke-width:0px;"/><polygon points="470.7 256.3 464.1 247 478.7 247 477 256.3 470.7 256.3" style="fill:#1d252c; stroke-width:0px;"/><polygon points="458.4 231.7 467.7 230.1 469.8 236.1 463.3 245.4 458.4 231.7" style="fill:#1d252c; stroke-width:0px;"/><polygon points="458.4 261.3 463.3 247.6 469.8 256.9 467.7 262.8 458.4 261.3" style="fill:#0069a7; stroke-width:0px;"/><rect x="432.2" y="221" width="51" height="51" style="fill:none; stroke-width:0px;"/><path d="m7.5,242.1c0,.5-.1,1-.3,1.4-.2.4-.4.8-.8,1.1-.3.3-.7.5-1.1.7-.4.2-.9.2-1.5.2s-1.1-.1-1.6-.3-.9-.5-1.2-.9-.6-.9-.7-1.5S0,241.6,0,240.9v-1.4C0,238.8,0,238.2.3,237.6s.4-1.1.8-1.5c.3-.4.7-.7,1.2-.9.5-.2,1-.3,1.6-.3s1.1,0,1.5.2c.4.2.8.4,1.1.7s.6.7.7,1.1c.2.4.3.9.3,1.5h-2c0-.3,0-.6-.1-.8,0-.2-.2-.4-.3-.6-.1-.2-.3-.3-.5-.3s-.5-.1-.8-.1-.6,0-.8.2c-.2.1-.4.3-.6.6s-.3.6-.3.9c0,.4-.1.8-.1,1.3v1.4c0,1,.1,1.8.4,2.2.3.5.7.7,1.4.7s.9-.1,1.2-.4.5-.7.5-1.3h2Z" style="fill:#1d252c; stroke-width:0px;"/><path d="m12.6,243.7h4.8v1.6h-6.8v-10.3h2v8.7Z" style="fill:#1d252c; stroke-width:0px;"/><path d="m27.8,240.9c0,.7,0,1.3-.3,1.8-.2.6-.4,1-.8,1.4-.3.4-.7.7-1.2.9s-1,.3-1.6.3-1.1-.1-1.6-.3-.9-.5-1.2-.9-.6-.9-.7-1.4c-.2-.6-.2-1.2-.2-1.8v-1.5c0-.7,0-1.3.2-1.8.2-.6.4-1,.7-1.4s.7-.7,1.2-.9,1-.3,1.6-.3,1.1.1,1.6.3.9.5,1.2.9.6.9.8,1.4c.2.6.3,1.2.3,1.8v1.5Zm-2-1.5c0-.4,0-.8-.1-1.2s-.2-.7-.3-.9-.3-.5-.6-.6c-.2-.1-.5-.2-.8-.2s-.6,0-.8.2c-.2.1-.4.3-.5.6s-.2.6-.3.9,0,.7,0,1.2v1.5c0,.4,0,.8,0,1.2s.2.7.3.9c.1.3.3.5.5.6.2.1.5.2.8.2s.6,0,.8-.2c.2-.1.4-.3.6-.6.1-.3.3-.6.3-.9s.1-.7.1-1.2v-1.5Z" style="fill:#1d252c; stroke-width:0px;"/><path d="m37.6,235v6.8c0,.6,0,1.1-.2,1.5-.2.4-.4.8-.7,1.1-.3.3-.7.5-1.1.7s-.9.2-1.5.2-1,0-1.4-.2-.8-.4-1.1-.7c-.3-.3-.5-.7-.7-1.1-.2-.5-.2-1-.2-1.5v-6.8h2v6.8c0,.7.1,1.2.4,1.5s.6.5,1,.5.9-.2,1.1-.5.4-.8.4-1.5v-6.8h2Z" style="fill:#1d252c; stroke-width:0px;"/><path d="m40.8,245.3v-10.3h2.7c.7,0,1.3.1,1.9.4s1,.6,1.4,1,.7.9.9,1.5.3,1.2.3,1.9v.8c0,.7-.1,1.3-.3,1.9-.2.6-.5,1.1-.9,1.5s-.9.7-1.4,1c-.5.2-1.1.3-1.8.3h-2.8Zm2-8.7v7.1h.8c.4,0,.7,0,1-.2s.5-.3.7-.6.4-.6.5-1c.1-.4.2-.8.2-1.3v-.9c0-.5,0-.9-.2-1.3-.1-.4-.3-.7-.5-1-.2-.3-.5-.5-.8-.6-.3-.2-.7-.2-1.1-.2h-.7Z" style="fill:#1d252c; stroke-width:0px;"/><path d="m56,241.2l.7-6.2h1.8l-1.4,10.3h-1.8l-1-6.1-.9,6.1h-1.8l-1.4-10.3h1.8l.7,6.2.9-6.2h1.4l.9,6.2Z" style="fill:#1d252c; stroke-width:0px;"/><path d="m68.3,240.9c0,.7,0,1.3-.3,1.8-.2.6-.4,1-.8,1.4-.3.4-.7.7-1.2.9s-1,.3-1.6.3-1.1-.1-1.6-.3-.9-.5-1.2-.9-.6-.9-.7-1.4c-.2-.6-.2-1.2-.2-1.8v-1.5c0-.7,0-1.3.2-1.8.2-.6.4-1,.7-1.4s.7-.7,1.2-.9,1-.3,1.6-.3,1.1.1,1.6.3.9.5,1.2.9.6.9.8,1.4c.2.6.3,1.2.3,1.8v1.5Zm-2-1.5c0-.4,0-.8-.1-1.2s-.2-.7-.3-.9-.3-.5-.6-.6c-.2-.1-.5-.2-.8-.2s-.6,0-.8.2c-.2.1-.4.3-.5.6s-.2.6-.3.9,0,.7,0,1.2v1.5c0,.4,0,.8,0,1.2s.2.7.3.9c.1.3.3.5.5.6.2.1.5.2.8.2s.6,0,.8-.2c.2-.1.4-.3.6-.6.1-.3.3-.6.3-.9s.1-.7.1-1.2v-1.5Z" style="fill:#1d252c; stroke-width:0px;"/><path d="m74.8,241.5h-1.5v3.8h-2v-10.3h3.5c.6,0,1.1,0,1.5.2s.9.3,1.2.6c.3.3.6.6.8,1,.2.4.3.8.3,1.3s0,.7-.1,1c0,.3-.2.6-.4.8s-.4.4-.6.6c-.2.2-.5.3-.8.5l2.2,4.3h0c0,0-2.1,0-2.1,0l-1.9-3.8Zm-1.5-1.6h1.5c.6,0,1-.1,1.3-.4.3-.3.5-.7.5-1.2s-.1-.9-.4-1.2c-.3-.3-.7-.4-1.3-.4h-1.5v3.2Z" style="fill:#1d252c; stroke-width:0px;"/><path d="m84.9,238.7l1.8-3.7h2.3l-2.9,5.1,3,5.2h-2.3l-1.9-3.7-1.9,3.7h-2.3l3-5.2-2.9-5.1h2.3l1.8,3.7Z" style="fill:#1d252c; stroke-width:0px;"/><path d="m23.6,256.9c0-.2,0-.4,0-.5,0-.2.2-.3.3-.4.1-.1.3-.2.4-.3.2,0,.4-.1.6-.1s.4,0,.6.1c.2,0,.3.2.4.3.1.1.2.3.3.4,0,.2,0,.3,0,.5s0,.3,0,.5-.2.3-.3.4c-.1.1-.3.2-.4.3-.2,0-.4,0-.6,0s-.4,0-.6,0c-.2,0-.3-.2-.4-.3-.1-.1-.2-.3-.3-.4s0-.3,0-.5Z" style="fill:#0069a7; stroke-width:0px;"/><path d="m33.8,256.4h4.8v1.6h-6.8v-10.3h2v8.7Z" style="fill:#0069a7; stroke-width:0px;"/><path d="m42.2,247.7h6v1.6h-2v7.1h2v1.6h-6v-1.6h2v-7.1h-2v-1.6Z" style="fill:#0069a7; stroke-width:0px;"/><path d="m57.3,255.3c0-.2,0-.4,0-.5,0-.2-.2-.3-.3-.4-.2-.1-.4-.3-.6-.4-.2-.1-.6-.2-.9-.3-.4-.1-.9-.3-1.3-.5s-.8-.4-1.1-.7c-.3-.3-.6-.6-.7-.9-.2-.3-.3-.7-.3-1.2s0-.8.3-1.2.4-.7.8-.9c.3-.2.7-.4,1.2-.6s.9-.2,1.4-.2,1,0,1.5.2.8.4,1.1.7c.3.3.6.6.7,1,.2.4.3.8.3,1.3h-1.9c0-.2,0-.4-.1-.6,0-.2-.2-.4-.3-.5-.1-.1-.3-.2-.5-.3s-.5-.1-.8-.1-.5,0-.7,0-.4.2-.5.3c-.1.1-.2.3-.3.4,0,.2-.1.3-.1.5s0,.4.1.5.2.3.4.4c.2.1.4.2.7.3.3.1.6.2.9.3.5.1.9.3,1.3.5s.7.4,1,.7c.3.3.5.6.7.9s.2.7.2,1.2,0,.9-.3,1.2c-.2.4-.4.6-.8.9-.3.2-.7.4-1.1.6s-.9.2-1.5.2-.6,0-1,0c-.3,0-.6-.1-.9-.3-.3-.1-.6-.3-.8-.5s-.5-.4-.7-.6c-.2-.2-.3-.5-.4-.8s-.2-.7-.2-1h2c0,.3,0,.6.2.8,0,.2.2.4.4.5s.4.2.6.3c.2,0,.5,0,.8,0s.5,0,.7,0c.2,0,.4-.1.5-.3.1-.1.3-.2.3-.4,0-.2.1-.3.1-.5Z" style="fill:#0069a7; stroke-width:0px;"/><path d="m69.6,249.3h-3.2v8.7h-2v-8.7h-3.1v-1.6h8.3v1.6Z" style="fill:#0069a7; stroke-width:0px;"/><path d="m78.5,253.5h-4.2v2.9h4.9v1.6h-6.9v-10.3h6.9v1.6h-4.9v2.6h4.2v1.6Z" style="fill:#0069a7; stroke-width:0px;"/><path d="m89.1,258h-2l-2.9-6.6v6.6h-2v-10.3h2l2.8,6.6v-6.6h2v10.3Z" style="fill:#0069a7; stroke-width:0px;"/><polygon points="110.1 261.8 110.1 255.5 119.3 248.9 119.3 263.5 110.1 261.8" style="fill:#1d252c; stroke-width:0px;"/><polygon points="120.4 248.9 129.7 255.5 129.7 261.8 120.4 263.5 120.4 248.9" style="fill:#1d252c; stroke-width:0px;"/><polygon points="123.3 236.4 129.9 229.6 138.4 241.4 127 241.5 123.3 236.4" style="fill:#0069a7; stroke-width:0px;"/><polygon points="123.4 247.7 127 242.5 138.4 242.4 130.1 254.4 123.4 247.7" style="fill:#0069a7; stroke-width:0px;"/><polygon points="101.1 242.6 112.5 242.5 116.1 247.6 109.6 254.4 101.1 242.6" style="fill:#0069a7; stroke-width:0px;"/><polygon points="109.4 229.6 116 236.2 112.5 241.4 101.1 241.6 109.4 229.6" style="fill:#0069a7; stroke-width:0px;"/><rect x="94.2" y="221" width="51" height="51" style="fill:none; stroke-width:0px;"/><polyline points="229 310.9 215.9 319.3 148.8 319.3" style="fill:none; stroke:#1d252c; stroke-miterlimit:10;"/><polyline points="348.4 310.9 361.5 319.3 428.6 319.3" style="fill:none; stroke:#1d252c; stroke-miterlimit:10;"/><path d="m273.1,391.2c0-.2,0-.4,0-.5,0-.2.1-.3.3-.4.1-.1.3-.2.4-.3s.4-.1.6-.1.4,0,.6.1c.2,0,.3.2.4.3.1.1.2.2.3.4,0,.2,0,.3,0,.5s0,.3,0,.5c0,.2-.2.3-.3.4-.1.1-.3.2-.4.3-.2,0-.4,0-.6,0s-.4,0-.6,0-.3-.2-.4-.3c-.1-.1-.2-.2-.3-.4,0-.2,0-.3,0-.5Z" style="fill:#0069a7; stroke-width:0px;"/><path d="m273.1,391.2c0-.2,0-.4,0-.5,0-.2.1-.3.3-.4.1-.1.3-.2.4-.3s.4-.1.6-.1.4,0,.6.1c.2,0,.3.2.4.3.1.1.2.2.3.4,0,.2,0,.3,0,.5s0,.3,0,.5c0,.2-.2.3-.3.4-.1.1-.3.2-.4.3-.2,0-.4,0-.6,0s-.4,0-.6,0-.3-.2-.4-.3c-.1-.1-.2-.2-.3-.4,0-.2,0-.3,0-.5Z" style="fill:#0069a7; stroke-width:0px;"/><path d="m288.1,391.1c-.1.2-.3.3-.5.5s-.5.3-.8.4c-.3.1-.6.2-1,.3s-.8.1-1.2.1-1.1-.1-1.6-.3c-.5-.2-.9-.5-1.2-.9-.3-.4-.6-.9-.8-1.4-.2-.6-.3-1.2-.3-1.9v-1.4c0-.7,0-1.3.3-1.9s.4-1,.8-1.4c.3-.4.7-.7,1.2-.9.4-.2.9-.3,1.5-.3s1.1,0,1.5.2c.4.1.8.4,1.1.6.3.3.5.6.7,1,.2.4.3.8.3,1.3h-1.9c0-.5-.2-.9-.5-1.2s-.6-.4-1.2-.4-.5,0-.7.2c-.2.1-.4.3-.6.6-.2.2-.3.6-.4.9,0,.4-.1.8-.1,1.3v1.4c0,.9.2,1.7.5,2.2s.8.8,1.4.8c.2,0,.3,0,.5,0,.1,0,.3,0,.4,0s.2,0,.3-.1.2-.1.2-.2v-1.8s-1.7,0-1.7,0v-1.5h3.6v4Z" style="fill:#0069a7; stroke-width:0px;"/><path d="m296.1,390.2h-3.1l-.6,2.1h-2.1l3.3-10.2h1.8l3.3,10.2h-2.1l-.6-2.1Zm-2.6-1.7h2.1l-1-3.7-1.1,3.7Z" style="fill:#0069a7; stroke-width:0px;"/><path d="m307.8,392.3h-2l-2.8-6.6v6.6h-2v-10.2h2l2.8,6.5v-6.5h2v10.2Z" style="fill:#0069a7; stroke-width:0px;"/><path d="m318.6,383.7h-3.1v8.6h-2v-8.6h-3.1v-1.6h8.2v1.6Z" style="fill:#0069a7; stroke-width:0px;"/><path d="m328.6,383.7h-3.1v8.6h-2v-8.6h-3.1v-1.6h8.2v1.6Z" style="fill:#0069a7; stroke-width:0px;"/><rect x="217.6" y="355.3" width="51" height="51" style="fill:none; stroke-width:0px;"/><polygon points="233 370.6 236.3 375.2 236.6 375.2 242.1 375.2 242.6 375.2 244.3 366 229.7 366 233 370.6" style="fill:#0069a7; stroke-width:0px;"/><polygon points="228.6 366 222.3 366 220.6 375.2 235.2 375.2 231.9 370.6 228.6 366" style="fill:#0069a7; stroke-width:0px;"/><polygon points="233.8 385.4 234.7 380.8 235.5 376.1 220.9 376.1 227.5 385.4 233.8 385.4" style="fill:#1d252c; stroke-width:0px;"/><polygon points="249.3 385.4 246 380.8 242.7 376.1 236.9 376.1 236.4 376.1 235.6 380.8 234.7 385.4 242.8 385.4 249.3 385.4" style="fill:#1d252c; stroke-width:0px;"/><polygon points="247.1 380.8 250.4 385.4 256.7 385.4 258.4 376.1 243.8 376.1 247.1 380.8" style="fill:#1d252c; stroke-width:0px;"/><polygon points="254.3 391 257.5 395.6 263.8 395.6 265.5 386.3 257.4 386.3 251 386.3 254.3 391" style="fill:#0069a7; stroke-width:0px;"/><polygon points="253.2 391 249.9 386.3 243.6 386.3 241.9 395.6 256.4 395.6 253.2 391" style="fill:#0069a7; stroke-width:0px;"/><polygon points="253.2 391 249.9 386.3 243.6 386.3 241.9 395.6 256.4 395.6 253.2 391" style="fill:#0069a7; stroke-width:0px;"/><path d="m278.2,376.6c0,.5-.1,1-.3,1.4-.2.4-.4.8-.8,1.1-.3.3-.7.5-1.1.7-.4.2-.9.2-1.5.2s-1.1-.1-1.6-.3-.9-.5-1.2-.9-.6-.9-.7-1.5-.3-1.2-.3-1.9v-1.4c0-.7,0-1.3.3-1.9s.4-1.1.8-1.5c.3-.4.7-.7,1.2-.9.5-.2,1-.3,1.6-.3s1.1,0,1.5.2c.4.2.8.4,1.1.7s.6.7.7,1.1c.2.4.3.9.3,1.5h-2c0-.3,0-.6-.1-.8,0-.2-.2-.4-.3-.6-.1-.2-.3-.3-.5-.3s-.5-.1-.8-.1-.6,0-.8.2c-.2.1-.4.3-.6.6s-.3.6-.3.9c0,.4-.1.8-.1,1.3v1.4c0,1,.1,1.8.4,2.2.3.5.7.7,1.4.7s.9-.1,1.2-.4.5-.7.5-1.3h2Z" style="fill:#1d252c; stroke-width:0px;"/><path d="m283.3,378.2h4.8v1.6h-6.8v-10.3h2v8.7Z" style="fill:#1d252c; stroke-width:0px;"/><path d="m298.5,375.4c0,.7,0,1.3-.3,1.8-.2.6-.4,1-.8,1.4-.3.4-.7.7-1.2.9s-1,.3-1.6.3-1.1-.1-1.6-.3-.9-.5-1.2-.9-.6-.9-.7-1.4c-.2-.6-.2-1.2-.2-1.8v-1.5c0-.7,0-1.3.2-1.8.2-.6.4-1,.7-1.4s.7-.7,1.2-.9,1-.3,1.6-.3,1.1.1,1.6.3.9.5,1.2.9.6.9.8,1.4c.2.6.3,1.2.3,1.8v1.5Zm-2-1.5c0-.4,0-.8-.1-1.2s-.2-.7-.3-.9-.3-.5-.6-.6c-.2-.1-.5-.2-.8-.2s-.6,0-.8.2c-.2.1-.4.3-.5.6s-.2.6-.3.9,0,.7,0,1.2v1.5c0,.4,0,.8,0,1.2s.2.7.3.9c.1.3.3.5.5.6.2.1.5.2.8.2s.6,0,.8-.2c.2-.1.4-.3.6-.6.1-.3.3-.6.3-.9s.1-.7.1-1.2v-1.5Z" style="fill:#1d252c; stroke-width:0px;"/><path d="m308.3,369.5v6.8c0,.6,0,1.1-.2,1.5-.2.4-.4.8-.7,1.1-.3.3-.7.5-1.1.7s-.9.2-1.5.2-1,0-1.4-.2-.8-.4-1.1-.7c-.3-.3-.5-.7-.7-1.1-.2-.5-.2-1-.2-1.5v-6.8h2v6.8c0,.7.1,1.2.4,1.5s.6.5,1,.5.9-.2,1.1-.5.4-.8.4-1.5v-6.8h2Z" style="fill:#1d252c; stroke-width:0px;"/><path d="m311.6,379.8v-10.3h2.7c.7,0,1.3.1,1.9.4s1,.6,1.4,1,.7.9.9,1.5.3,1.2.3,1.9v.8c0,.7-.1,1.3-.3,1.9-.2.6-.5,1.1-.9,1.5s-.9.7-1.4,1c-.5.2-1.1.3-1.8.3h-2.8Zm2-8.7v7.1h.8c.4,0,.7,0,1-.2s.5-.3.7-.6.4-.6.5-1c.1-.4.2-.8.2-1.3v-.9c0-.5,0-.9-.2-1.3-.1-.4-.3-.7-.5-1-.2-.3-.5-.5-.8-.6-.3-.2-.7-.2-1.1-.2h-.7Z" style="fill:#1d252c; stroke-width:0px;"/><path d="m326.8,375.7l.7-6.2h1.8l-1.4,10.3h-1.8l-1-6.1-.9,6.1h-1.8l-1.4-10.3h1.8l.7,6.2.9-6.2h1.4l.9,6.2Z" style="fill:#1d252c; stroke-width:0px;"/><path d="m339,375.4c0,.7,0,1.3-.3,1.8-.2.6-.4,1-.8,1.4-.3.4-.7.7-1.2.9s-1,.3-1.6.3-1.1-.1-1.6-.3-.9-.5-1.2-.9-.6-.9-.7-1.4c-.2-.6-.2-1.2-.2-1.8v-1.5c0-.7,0-1.3.2-1.8.2-.6.4-1,.7-1.4s.7-.7,1.2-.9,1-.3,1.6-.3,1.1.1,1.6.3.9.5,1.2.9.6.9.8,1.4c.2.6.3,1.2.3,1.8v1.5Zm-2-1.5c0-.4,0-.8-.1-1.2s-.2-.7-.3-.9-.3-.5-.6-.6c-.2-.1-.5-.2-.8-.2s-.6,0-.8.2c-.2.1-.4.3-.5.6s-.2.6-.3.9,0,.7,0,1.2v1.5c0,.4,0,.8,0,1.2s.2.7.3.9c.1.3.3.5.5.6.2.1.5.2.8.2s.6,0,.8-.2c.2-.1.4-.3.6-.6.1-.3.3-.6.3-.9s.1-.7.1-1.2v-1.5Z" style="fill:#1d252c; stroke-width:0px;"/><path d="m345.5,376h-1.5v3.8h-2v-10.3h3.5c.6,0,1.1,0,1.5.2s.9.3,1.2.6c.3.3.6.6.8,1,.2.4.3.8.3,1.3s0,.7-.1,1c0,.3-.2.6-.4.8s-.4.4-.6.6c-.2.2-.5.3-.8.5l2.2,4.3h0c0,0-2.1,0-2.1,0l-1.9-3.8Zm-1.5-1.6h1.5c.6,0,1-.1,1.3-.4.3-.3.5-.7.5-1.2s-.1-.9-.4-1.2c-.3-.3-.7-.4-1.3-.4h-1.5v3.2Z" style="fill:#1d252c; stroke-width:0px;"/><path d="m355.6,373.2l1.8-3.7h2.3l-2.9,5.1,3,5.2h-2.3l-1.9-3.7-1.9,3.7h-2.3l3-5.2-2.9-5.1h2.3l1.8,3.7Z" style="fill:#1d252c; stroke-width:0px;"/><path d="m7.5,314.9c0,.5-.1,1-.3,1.4s-.4.8-.8,1.1-.7.5-1.1.7c-.4.2-.9.2-1.5.2s-1.1-.1-1.6-.3-.9-.5-1.2-.9-.6-.9-.7-1.5S0,314.3,0,313.6v-1.4C0,311.6,0,311,.3,310.4s.4-1.1.8-1.5.7-.7,1.2-.9,1-.3,1.6-.3,1.1,0,1.5.2.8.4,1.1.7.6.7.7,1.1.3.9.3,1.5h-2c0-.3,0-.6-.1-.8s-.2-.4-.3-.6-.3-.3-.5-.3-.5-.1-.8-.1-.6,0-.8.2-.4.3-.6.6-.3.6-.3.9-.1.8-.1,1.3v1.4c0,1,.1,1.8.4,2.2s.7.7,1.4.7.9-.1,1.2-.4.5-.7.5-1.3h2Z" style="fill:#1d252c; stroke-width:0px;"/><path d="m12.6,316.5h4.8v1.6h-6.8v-10.3h2v8.7Z" style="fill:#1d252c; stroke-width:0px;"/><path d="m27.8,313.7c0,.7,0,1.3-.3,1.8s-.4,1-.8,1.4-.7.7-1.2.9-1,.3-1.6.3-1.1-.1-1.6-.3-.9-.5-1.2-.9-.6-.9-.7-1.4-.2-1.2-.2-1.8v-1.5c0-.7,0-1.3.2-1.8s.4-1,.7-1.4.7-.7,1.2-.9,1-.3,1.6-.3,1.1.1,1.6.3.9.5,1.2.9.6.9.8,1.4.3,1.2.3,1.8v1.5Zm-2-1.5c0-.4,0-.8-.1-1.2s-.2-.7-.3-.9-.3-.5-.6-.6-.5-.2-.8-.2-.6,0-.8.2-.4.3-.5.6-.2.6-.3.9,0,.7,0,1.2v1.5c0,.4,0,.8,0,1.2s.2.7.3.9.3.5.5.6.5.2.8.2.6,0,.8-.2.4-.3.6-.6.3-.6.3-.9.1-.7.1-1.2v-1.5Z" style="fill:#1d252c; stroke-width:0px;"/><path d="m37.6,307.8v6.8c0,.6,0,1.1-.2,1.5s-.4.8-.7,1.1-.7.5-1.1.7-.9.2-1.5.2-1,0-1.4-.2-.8-.4-1.1-.7-.5-.7-.7-1.1-.2-1-.2-1.5v-6.8h2v6.8c0,.7.1,1.2.4,1.5s.6.5,1,.5.9-.2,1.1-.5.4-.8.4-1.5v-6.8h2Z" style="fill:#1d252c; stroke-width:0px;"/><path d="m40.8,318.1v-10.3h2.7c.7,0,1.3.1,1.9.4s1,.6,1.4,1,.7.9.9,1.5.3,1.2.3,1.9v.8c0,.7-.1,1.3-.3,1.9s-.5,1.1-.9,1.5-.9.7-1.4,1-1.1.3-1.8.3h-2.8Zm2-8.7v7.1h.8c.4,0,.7,0,1-.2s.5-.3.7-.6.4-.6.5-1,.2-.8.2-1.3v-.9c0-.5,0-.9-.2-1.3s-.3-.7-.5-1-.5-.5-.8-.6-.7-.2-1.1-.2h-.7Z" style="fill:#1d252c; stroke-width:0px;"/><path d="m56,314l.7-6.2h1.8l-1.4,10.3h-1.8l-1-6.1-.9,6.1h-1.8l-1.4-10.3h1.8l.7,6.2.9-6.2h1.4l.9,6.2Z" style="fill:#1d252c; stroke-width:0px;"/><path d="m68.3,313.7c0,.7,0,1.3-.3,1.8s-.4,1-.8,1.4-.7.7-1.2.9-1,.3-1.6.3-1.1-.1-1.6-.3-.9-.5-1.2-.9-.6-.9-.7-1.4-.2-1.2-.2-1.8v-1.5c0-.7,0-1.3.2-1.8s.4-1,.7-1.4.7-.7,1.2-.9,1-.3,1.6-.3,1.1.1,1.6.3.9.5,1.2.9.6.9.8,1.4.3,1.2.3,1.8v1.5Zm-2-1.5c0-.4,0-.8-.1-1.2s-.2-.7-.3-.9-.3-.5-.6-.6-.5-.2-.8-.2-.6,0-.8.2-.4.3-.5.6-.2.6-.3.9,0,.7,0,1.2v1.5c0,.4,0,.8,0,1.2s.2.7.3.9.3.5.5.6.5.2.8.2.6,0,.8-.2.4-.3.6-.6.3-.6.3-.9.1-.7.1-1.2v-1.5Z" style="fill:#1d252c; stroke-width:0px;"/><path d="m74.8,314.2h-1.5v3.8h-2v-10.3h3.5c.6,0,1.1,0,1.5.2s.9.3,1.2.6.6.6.8,1,.3.8.3,1.3,0,.7-.1,1-.2.6-.4.8-.4.4-.6.6-.5.3-.8.5l2.2,4.3h0c0,0-2.1,0-2.1,0l-1.9-3.8Zm-1.5-1.6h1.5c.6,0,1-.1,1.3-.4s.5-.7.5-1.2-.1-.9-.4-1.2-.7-.4-1.3-.4h-1.5v3.2Z" style="fill:#1d252c; stroke-width:0px;"/><path d="m84.9,311.5l1.8-3.7h2.3l-2.9,5.1,3,5.2h-2.3l-1.9-3.7-1.9,3.7h-2.3l3-5.2-2.9-5.1h2.3l1.8,3.7Z" style="fill:#1d252c; stroke-width:0px;"/><path d="m13.2,329.6c0-.2,0-.4,0-.5s.2-.3.3-.4.3-.2.4-.3.4-.1.6-.1.4,0,.6.1.3.2.4.3.2.3.3.4,0,.3,0,.5,0,.3,0,.5-.2.3-.3.4-.3.2-.4.3c-.2,0-.4,0-.6,0s-.4,0-.6,0c-.2,0-.3-.2-.4-.3s-.2-.3-.3-.4,0-.3,0-.5Z" style="fill:#0069a7; stroke-width:0px;"/><path d="m23.7,320.5l1,3.9,1.1-3.9h2.5v10.3h-1.8v-7.9c0,0-1.3,4.5-1.3,4.5h-1l-1.2-4.3v4.6c0,0,0,3,0,3h-1.8v-10.3h2.5Z" style="fill:#0069a7; stroke-width:0px;"/><path d="m31.8,320.5h6v1.6h-2v7.1h2v1.6h-6v-1.6h2v-7.1h-2v-1.6Z" style="fill:#0069a7; stroke-width:0px;"/><path d="m48.6,329.6c-.1.2-.3.3-.5.5s-.5.3-.8.4-.6.2-1,.3c-.4,0-.8.1-1.2.1s-1.1-.1-1.6-.3c-.5-.2-.9-.5-1.2-.9s-.6-.9-.8-1.4-.3-1.2-.3-1.9v-1.4c0-.7,0-1.4.3-1.9s.5-1.1.8-1.4.7-.7,1.2-.9.9-.3,1.5-.3,1.1,0,1.5.2.8.4,1.1.6.5.6.7,1,.3.8.3,1.3h-1.9c0-.5-.2-.9-.5-1.2s-.6-.4-1.2-.4-.5,0-.7.2-.4.3-.6.6-.3.6-.4.9-.1.8-.1,1.3v1.4c0,1,.2,1.7.5,2.2s.8.8,1.5.8c.2,0,.3,0,.5,0s.3,0,.4,0,.2,0,.4-.1.2-.1.2-.2v-1.9s-1.7,0-1.7,0v-1.5h3.7v4.1Z" style="fill:#0069a7; stroke-width:0px;"/><path d="m55.1,326.9h-1.5v3.8h-2v-10.3h3.5c.6,0,1.1,0,1.5.2s.9.3,1.2.6.6.6.8,1,.3.8.3,1.3,0,.7-.1,1-.2.6-.4.8-.4.4-.6.6-.5.3-.8.5l2.2,4.3h0c0,0-2.1,0-2.1,0l-1.9-3.8Zm-1.5-1.6h1.5c.6,0,1-.1,1.3-.4s.5-.7.5-1.2-.1-.9-.4-1.2-.7-.4-1.3-.4h-1.5v3.2Z" style="fill:#0069a7; stroke-width:0px;"/><path d="m66.8,328.6h-3.1l-.6,2.2h-2.1l3.4-10.3h1.8l3.3,10.3h-2.1l-.6-2.2Zm-2.6-1.7h2.1l-1.1-3.8-1.1,3.8Z" style="fill:#0069a7; stroke-width:0px;"/><path d="m79.4,322.1h-3.2v8.7h-2v-8.7h-3.1v-1.6h8.3v1.6Z" style="fill:#0069a7; stroke-width:0px;"/><path d="m88.3,326.3h-4.2v2.9h4.9v1.6h-6.9v-10.3h6.9v1.6h-4.9v2.6h4.2v1.6Z" style="fill:#0069a7; stroke-width:0px;"/><polygon points="98.7 334.2 100.4 324.9 106.7 324.9 113.3 334.2 98.7 334.2" style="fill:#1d252c; stroke-width:0px;"/><polygon points="107.6 324.3 109.7 318.4 119 319.9 114.1 333.6 107.6 324.3" style="fill:#0069a7; stroke-width:0px;"/><polygon points="109.9 317.4 109.8 311.1 118.9 304.4 119.2 318.9 109.9 317.4" style="fill:#0069a7; stroke-width:0px;"/><polygon points="126.2 334.2 132.7 324.9 139 324.9 140.7 334.2 126.2 334.2" style="fill:#1d252c; stroke-width:0px;"/><polygon points="120.4 319.9 129.7 318.4 131.9 324.3 125.3 333.6 120.4 319.9" style="fill:#0069a7; stroke-width:0px;"/><polygon points="120.5 304.4 129.7 311.1 129.6 317.4 120.3 318.9 120.5 304.4" style="fill:#0069a7; stroke-width:0px;"/><rect x="94.2" y="293.8" width="51" height="51" style="fill:none; stroke-width:0px;"/><polyline points="222.1 248.6 215.9 246.3 148.8 246.3" style="fill:none; stroke:#1d252c; stroke-miterlimit:10;"/><polyline points="246.8 215.6 215.9 173.5 148.8 173.5" style="fill:none; stroke:#1d252c; stroke-miterlimit:10;"/><polyline points="330.6 215.6 361.5 173.5 428.6 173.5" style="fill:none; stroke:#1d252c; stroke-miterlimit:10;"/><polyline points="513.7 78.8 482.9 120.9 339.6 120.9" style="fill:none; stroke:#1d252c; stroke-miterlimit:10;"/><polyline points="63.7 78.8 94.5 120.9 237.8 120.9" style="fill:none; stroke:#1d252c; stroke-miterlimit:10;"/><polyline points="355.3 248.6 361.5 246.3 428.6 246.3" style="fill:none; stroke:#1d252c; stroke-miterlimit:10;"/><path d="m495.8,314.9c0,.5-.1,1-.3,1.4-.2.4-.4.8-.8,1.1-.3.3-.7.5-1.1.7-.4.2-.9.2-1.5.2s-1.1-.1-1.6-.3c-.5-.2-.9-.5-1.2-.9-.3-.4-.6-.9-.7-1.5-.2-.6-.3-1.2-.3-1.9v-1.4c0-.7,0-1.3.3-1.9s.4-1.1.8-1.5c.3-.4.7-.7,1.2-.9.5-.2,1-.3,1.6-.3s1.1,0,1.5.2.8.4,1.1.7c.3.3.6.7.7,1.1.2.4.3.9.3,1.5h-2c0-.3,0-.6-.1-.8,0-.2-.2-.4-.3-.6-.1-.2-.3-.3-.5-.3s-.5-.1-.8-.1-.6,0-.8.2c-.2.1-.4.3-.6.6-.1.3-.3.6-.3.9s-.1.8-.1,1.3v1.4c0,1,.1,1.8.4,2.2.3.5.7.7,1.4.7s.9-.1,1.2-.4c.3-.3.5-.7.5-1.3h2Z" style="fill:#1d252c; stroke-width:0px;"/><path d="m500.9,316.5h4.8v1.6h-6.8v-10.3h2v8.7Z" style="fill:#1d252c; stroke-width:0px;"/><path d="m516.1,313.7c0,.7,0,1.3-.3,1.8-.2.6-.4,1-.8,1.4-.3.4-.7.7-1.2.9-.5.2-1,.3-1.6.3s-1.1-.1-1.6-.3c-.5-.2-.9-.5-1.2-.9-.3-.4-.6-.9-.7-1.4-.2-.6-.2-1.2-.2-1.8v-1.5c0-.7,0-1.3.2-1.8.2-.6.4-1,.7-1.4.3-.4.7-.7,1.2-.9.5-.2,1-.3,1.6-.3s1.1.1,1.6.3.9.5,1.2.9c.3.4.6.9.8,1.4.2.6.3,1.2.3,1.8v1.5Zm-2-1.5c0-.4,0-.8-.1-1.2,0-.4-.2-.7-.3-.9-.1-.3-.3-.5-.6-.6-.2-.1-.5-.2-.8-.2s-.6,0-.8.2c-.2.1-.4.3-.5.6s-.2.6-.3.9c0,.4,0,.7,0,1.2v1.5c0,.4,0,.8,0,1.2,0,.4.2.7.3.9s.3.5.5.6c.2.1.5.2.8.2s.6,0,.8-.2c.2-.1.4-.3.6-.6.1-.3.3-.6.3-.9,0-.4.1-.7.1-1.2v-1.5Z" style="fill:#1d252c; stroke-width:0px;"/><path d="m525.9,307.8v6.8c0,.6,0,1.1-.2,1.5s-.4.8-.7,1.1c-.3.3-.7.5-1.1.7-.4.2-.9.2-1.5.2s-1,0-1.4-.2c-.4-.2-.8-.4-1.1-.7-.3-.3-.5-.7-.7-1.1-.2-.5-.2-1-.2-1.5v-6.8h2v6.8c0,.7.1,1.2.4,1.5.2.3.6.5,1,.5s.9-.2,1.1-.5c.3-.3.4-.8.4-1.5v-6.8h2Z" style="fill:#1d252c; stroke-width:0px;"/><path d="m529.1,318.1v-10.3h2.7c.7,0,1.3.1,1.9.4s1,.6,1.4,1c.4.4.7.9.9,1.5.2.6.3,1.2.3,1.9v.8c0,.7-.1,1.3-.3,1.9-.2.6-.5,1.1-.9,1.5-.4.4-.9.7-1.4,1-.5.2-1.1.3-1.8.3h-2.8Zm2-8.7v7.1h.8c.4,0,.7,0,1-.2s.5-.3.7-.6c.2-.3.4-.6.5-1,.1-.4.2-.8.2-1.3v-.9c0-.5,0-.9-.2-1.3-.1-.4-.3-.7-.5-1-.2-.3-.5-.5-.8-.6-.3-.2-.7-.2-1.1-.2h-.7Z" style="fill:#1d252c; stroke-width:0px;"/><path d="m544.3,314l.7-6.2h1.8l-1.4,10.3h-1.8l-1-6.1-.9,6.1h-1.8l-1.4-10.3h1.8l.7,6.2.9-6.2h1.4l.9,6.2Z" style="fill:#1d252c; stroke-width:0px;"/><path d="m556.6,313.7c0,.7,0,1.3-.3,1.8-.2.6-.4,1-.8,1.4-.3.4-.7.7-1.2.9-.5.2-1,.3-1.6.3s-1.1-.1-1.6-.3c-.5-.2-.9-.5-1.2-.9-.3-.4-.6-.9-.7-1.4-.2-.6-.2-1.2-.2-1.8v-1.5c0-.7,0-1.3.2-1.8.2-.6.4-1,.7-1.4.3-.4.7-.7,1.2-.9.5-.2,1-.3,1.6-.3s1.1.1,1.6.3.9.5,1.2.9c.3.4.6.9.8,1.4.2.6.3,1.2.3,1.8v1.5Zm-2-1.5c0-.4,0-.8-.1-1.2,0-.4-.2-.7-.3-.9-.1-.3-.3-.5-.6-.6-.2-.1-.5-.2-.8-.2s-.6,0-.8.2c-.2.1-.4.3-.5.6s-.2.6-.3.9c0,.4,0,.7,0,1.2v1.5c0,.4,0,.8,0,1.2,0,.4.2.7.3.9s.3.5.5.6c.2.1.5.2.8.2s.6,0,.8-.2c.2-.1.4-.3.6-.6.1-.3.3-.6.3-.9,0-.4.1-.7.1-1.2v-1.5Z" style="fill:#1d252c; stroke-width:0px;"/><path d="m563,314.2h-1.5v3.8h-2v-10.3h3.5c.6,0,1.1,0,1.5.2s.9.3,1.2.6.6.6.8,1c.2.4.3.8.3,1.3s0,.7-.1,1c0,.3-.2.6-.4.8s-.4.4-.6.6c-.2.2-.5.3-.8.5l2.2,4.3h0c0,0-2.1,0-2.1,0l-1.9-3.8Zm-1.5-1.6h1.5c.6,0,1-.1,1.3-.4.3-.3.5-.7.5-1.2s-.1-.9-.4-1.2c-.3-.3-.7-.4-1.3-.4h-1.5v3.2Z" style="fill:#1d252c; stroke-width:0px;"/><path d="m573.2,311.5l1.8-3.7h2.3l-2.9,5.1,3,5.2h-2.3l-1.9-3.7-1.9,3.7h-2.3l3-5.2-2.9-5.1h2.3l1.8,3.7Z" style="fill:#1d252c; stroke-width:0px;"/><path d="m490.7,329.6c0-.2,0-.4,0-.5,0-.2.2-.3.3-.4.1-.1.3-.2.4-.3s.4-.1.6-.1.4,0,.6.1c.2,0,.3.2.4.3.1.1.2.3.3.4,0,.2,0,.3,0,.5s0,.3,0,.5c0,.2-.2.3-.3.4-.1.1-.3.2-.4.3-.2,0-.4,0-.6,0s-.4,0-.6,0-.3-.2-.4-.3c-.1-.1-.2-.3-.3-.4,0-.2,0-.3,0-.5Z" style="fill:#0069a7; stroke-width:0px;"/><path d="m500.9,329.2h4.8v1.6h-6.8v-10.3h2v8.7Z" style="fill:#0069a7; stroke-width:0px;"/><path d="m509.3,320.5h6v1.6h-2v7.1h2v1.6h-6v-1.6h2v-7.1h-2v-1.6Z" style="fill:#0069a7; stroke-width:0px;"/><path d="m524.4,328.1c0-.2,0-.4,0-.5,0-.2-.2-.3-.3-.4-.2-.1-.4-.3-.6-.4-.2-.1-.6-.2-.9-.3-.4-.1-.9-.3-1.3-.5-.4-.2-.8-.4-1.1-.7s-.6-.6-.7-.9c-.2-.3-.3-.7-.3-1.2s0-.8.3-1.2c.2-.4.4-.7.8-.9.3-.2.7-.4,1.2-.6s.9-.2,1.4-.2,1,0,1.5.2.8.4,1.1.7c.3.3.6.6.7,1,.2.4.3.8.3,1.3h-1.9c0-.2,0-.4-.1-.6,0-.2-.2-.4-.3-.5-.1-.1-.3-.2-.5-.3-.2,0-.5-.1-.8-.1s-.5,0-.7,0c-.2,0-.4.2-.5.3s-.2.3-.3.4c0,.2-.1.3-.1.5s0,.4.1.5c0,.2.2.3.4.4.2.1.4.2.7.3.3.1.6.2.9.3.5.1.9.3,1.3.5s.7.4,1,.7c.3.3.5.6.7.9.2.3.2.7.2,1.2s0,.9-.3,1.2-.4.6-.8.9c-.3.2-.7.4-1.1.6-.4.1-.9.2-1.5.2s-.6,0-1,0c-.3,0-.6-.1-.9-.3s-.6-.3-.8-.5c-.3-.2-.5-.4-.7-.6-.2-.2-.3-.5-.4-.8-.1-.3-.2-.7-.2-1h2c0,.3,0,.6.2.8s.2.4.4.5c.2.1.4.2.6.3.2,0,.5,0,.8,0s.5,0,.7,0,.4-.1.5-.3c.1-.1.2-.2.3-.4,0-.2.1-.3.1-.5Z" style="fill:#0069a7; stroke-width:0px;"/><path d="m536.7,322.1h-3.2v8.7h-2v-8.7h-3.1v-1.6h8.3v1.6Z" style="fill:#0069a7; stroke-width:0px;"/><polygon points="456.7 302.7 464 313.1 471.1 313.1 473 302.7 456.7 302.7" style="fill:#0069a7; stroke-width:0px;"/><polygon points="462.8 313.1 455.5 302.7 448.4 302.7 446.5 313.1 462.8 313.1" style="fill:#0069a7; stroke-width:0px;"/><polygon points="452.5 325.5 459.8 335.9 466.9 335.9 468.8 325.5 452.5 325.5" style="fill:#0069a7; stroke-width:0px;"/><polygon points="458.6 335.9 451.3 325.5 444.3 325.5 442.3 335.9 458.6 335.9" style="fill:#0069a7; stroke-width:0px;"/><polygon points="460.7 324.5 453.4 314.1 446.3 314.1 444.4 324.5 460.7 324.5" style="fill:#1d252c; stroke-width:0px;"/><polygon points="454.6 314.1 461.9 324.5 469 324.5 470.9 314.1 454.6 314.1" style="fill:#1d252c; stroke-width:0px;"/><rect x="432.2" y="293.8" width="51" height="51" style="fill:none; stroke-width:0px;"/><line x1="288.7" y1="343.7" x2="288.7" y2="355.3" style="fill:none; stroke:#1d252c; stroke-miterlimit:10;"/><line x1="288.7" y1="55.6" x2="288.7" y2="77.2" style="fill:none; stroke:#1d252c; stroke-miterlimit:10;"/><g id="d"><polygon points="180.8 56.7 179.8 60.9 186.1 60.9 187.1 56.7 180.8 56.7" style="fill:#516060; stroke-width:0px;"/><polygon points="164.4 53.5 170.7 53.5 171.7 49.2 165.4 49.2 164.4 53.5" style="fill:#516060; stroke-width:0px;"/><polygon points="151.2 60.9 168.9 60.9 169.9 56.7 152.2 56.7 151.2 60.9" style="fill:#516060; stroke-width:0px;"/><polygon points="162.1 49.2 144.4 49.2 143.4 53.5 161.1 53.5 162.1 49.2" style="fill:#516060; stroke-width:0px;"/><path d="m204.9,56.7c-4.3,0-8.3,3.4-8.8,7.7-.2,2,.4,4,1.6,5.4,1.3,1.5,3.3,2.3,5.4,2.3,4.3,0,8.3-3.4,8.8-7.7.2-2-.4-4-1.6-5.4-1.3-1.5-3.3-2.3-5.4-2.3Zm-1.3,11.1c-.9,0-1.8-.4-2.4-1-.6-.6-.8-1.5-.7-2.4.2-1.9,2-3.5,4-3.5s1.8.4,2.4,1c.6.6.8,1.5.7,2.4-.2,1.9-2,3.5-4,3.5Z" style="fill:#249fda; stroke-width:0px;"/><polygon points="188.8 49.2 174.9 49.2 169.5 72.1 173.9 72.1 178.3 53.5 187.8 53.5 188.8 49.2" style="fill:#249fda; stroke-width:0px;"/><path d="m192.2,67.7c0-.1,0-.7.2-1.4l4-17.1h-4.4l-4.5,18.8c-.3,1.1,0,2.1.5,2.9.6.8,1.5,1.2,2.7,1.2h2.1l1-4.3h-.4c-.7,0-1.3,0-1.4-.1h0Z" style="fill:#249fda; stroke-width:0px;"/><polygon points="232.3 56.7 226.6 65.9 225.9 60.4 222.1 60.4 218.8 65.9 217.5 56.9 217.4 56.7 213.1 56.7 215.3 71.8 215.4 72.1 219.6 72.1 222.5 66.8 223 72.1 227.2 72.1 236.8 56.7 232.3 56.7" style="fill:#249fda; stroke-width:0px;"/><polygon points="138 72.1 143.1 72.1 143.4 70.7 139.8 70.7 140.2 69.1 143.2 69.1 143.6 67.8 140.5 67.8 140.9 66.2 144.3 66.2 144.7 64.8 139.7 64.8 138 72.1" style="fill:#516060; stroke-width:0px;"/><path d="m149.8,64.5l-5,7.5h1.4l.9-1.4h2.4l.2,1.4h1.7l-1.5-7.5h0Zm-1.9,4.9l1.2-1.8.3,1.8h-1.4Z" style="fill:#516060; stroke-width:0px;"/><path d="m156.3,66.2c0,0,.2,0,.3-.1.1,0,.3,0,.4,0,.2,0,.5,0,.8.2.3.1.5.3.7.4l.8-1.1c-.2-.1-.3-.3-.5-.4-.2-.1-.4-.2-.7-.3-.3,0-.6-.1-1-.1-.4,0-.9,0-1.2.2s-.7.4-.9.7-.4.7-.5,1.1c0,.3,0,.6,0,.9,0,.2.2.5.4.6.2.2.4.3.6.4.2.1.4.2.6.3.2,0,.3.2.5.3.1.1.2.2.3.4s0,.3,0,.4c0,.2-.1.4-.3.5s-.3.2-.5.2c-.2,0-.4,0-.5,0-.2,0-.4,0-.5-.1-.2,0-.4-.1-.6-.3s-.3-.2-.5-.4l-.9,1.1c.2.2.4.4.7.5s.5.2.8.3.5.1.8.1c.4,0,.8,0,1.1,0,.3,0,.6-.2.9-.4s.5-.4.6-.6.3-.5.4-.8c.1-.5.1-.8,0-1.1-.1-.3-.3-.5-.5-.7-.2-.2-.5-.3-.7-.4-.2,0-.4-.2-.6-.3-.2-.1-.3-.2-.4-.4,0-.1-.1-.3,0-.5,0-.1,0-.2.1-.3s.1-.2.3-.2h0Z" style="fill:#516060; stroke-width:0px;"/><polygon points="166.2 64.8 163.8 68.2 162.9 64.8 161.1 64.8 162.6 69.8 162.1 72.1 163.6 72.1 164.1 69.8 168 64.8 166.2 64.8" style="fill:#516060; stroke-width:0px;"/></g><g id="e"><g id="f"><path d="m91.3,37.7h-4.6c-.8,0-1.4-.6-1.4-1.4h0c0-.8.6-1.4,1.4-1.4h4.6c.8,0,1.4.6,1.4,1.4h0c0,.8-.6,1.4-1.4,1.4Z" style="fill:#ffe800; stroke-width:0px;"/><path d="m96,48.7h-9.2c-.8,0-1.4-.6-1.4-1.4h0c0-.8.6-1.4,1.4-1.4h9.2c.8,0,1.4.6,1.4,1.4h0c0,.8-.6,1.4-1.4,1.4Z" style="stroke-width:0px;"/><path d="m28.6,47.1h0c.1.9-.4,1.7-1.2,1.8-.8.1-1.5-.4-1.7-1.2,0-.1,0-.3,0-.4v-15.9c.1-.8.9-1.4,1.7-1.2.6,0,1.1.6,1.2,1.2v5.2c1.2-1.1,2.8-1.7,4.4-1.7,3.8,0,6.6,3.1,6.6,7s-2.9,7-6.6,7c-1.6,0-3.2-.6-4.4-1.6Zm8.1-5.3c0-2.4-1.8-4.3-4-4.3s-4,1.8-4,4.1v.2c0,2.4,1.8,4.3,4,4.3s4-1.9,4-4.3Z" style="stroke-width:0px;"/><path d="m41.2,41.7c0-3.8,3.3-6.9,7.1-6.8,3.7,0,6.7,3.1,6.8,6.8,0,3.8-3.3,6.9-7.1,6.8-3.7,0-6.7-3.1-6.8-6.8Zm11,0c0-2.4-1.7-4.3-4-4.3s-4,1.9-4,4.3,1.7,4.3,4,4.3,4.1-2,4.1-4.3h0Z" style="stroke-width:0px;"/><path d="m57.3,36.2c-.1-.8.4-1.5,1.2-1.7s1.5.4,1.7,1.2c0,.1,0,.3,0,.4v6.4c0,2.2,1.3,3.4,3,3.4s3-1.2,3-3.4v-6.4c0-.8.6-1.4,1.4-1.5,0,0,0,0,0,0,.8,0,1.5.7,1.5,1.5v6.3c0,3.8-2.6,6.1-5.9,6.1s-5.9-2.4-5.9-6.1v-6.3Z" style="stroke-width:0px;"/><path d="m71.8,40.9c0-3.8,2.6-6.1,5.9-6.1s5.9,2.4,5.9,6.1v6.3c0,.8-.7,1.5-1.5,1.5s-1.5-.7-1.5-1.5v-6.4c0-2.2-1.3-3.3-3-3.3s-3,1.2-3,3.3v6.4c.1.8-.4,1.5-1.2,1.7-.8.1-1.5-.4-1.7-1.2,0-.1,0-.3,0-.4v-6.3Z" style="stroke-width:0px;"/><circle cx="1.4" cy="31.6" r="1.4" style="stroke-width:0px;"/><path d="m0,36.2c0-.8.6-1.4,1.4-1.5,0,0,0,0,0,0,.8,0,1.4.6,1.5,1.4,0,0,0,0,0,0v10.9c.1.8-.4,1.5-1.2,1.7-.8.1-1.5-.4-1.7-1.2,0-.1,0-.3,0-.4v-10.9Z" style="stroke-width:0px;"/><path d="m5.6,40.9c0-3.8,2.6-6.1,5.9-6.1s5.9,2.4,5.9,6.1v6.3c0,.8-.7,1.5-1.5,1.5s-1.5-.7-1.5-1.5v-6.4c0-2.2-1.3-3.3-3-3.3s-3,1.2-3,3.3v6.4c.1.8-.4,1.5-1.2,1.7s-1.5-.4-1.7-1.2c0-.1,0-.3,0-.4v-6.3Z" style="stroke-width:0px;"/><circle cx="21.5" cy="47.2" r="1.4" style="fill:#ffe800; stroke-width:0px;"/><rect x="82.7" y="40.3" width="17.3" height="2.9" rx="1.4" ry="1.4" transform="translate(.7 84.8) rotate(-49.9)" style="stroke-width:0px;"/></g></g><g id="g"><g id="h"><path d="m570.1,45.8h4.6c.8,0,1.4.6,1.4,1.4h0c0,.8-.6,1.4-1.4,1.4h-4.6c-.8,0-1.4-.6-1.4-1.4h0c0-.8.6-1.4,1.4-1.4Z" style="fill:#ffe800; stroke-width:0px;"/><path d="m565.4,34.8h9.2c.8,0,1.4.6,1.4,1.4h0c0,.8-.6,1.4-1.4,1.4h-9.2c-.8,0-1.4-.6-1.4-1.4h0c0-.8.6-1.4,1.4-1.4Z" style="stroke-width:0px;"/><path d="m507.2,47.1h0c.1.9-.4,1.7-1.2,1.8-.8.1-1.5-.4-1.7-1.2,0-.1,0-.3,0-.4v-15.9c.1-.8.9-1.4,1.7-1.2.6,0,1.1.6,1.2,1.2v5.2c1.2-1.1,2.8-1.7,4.4-1.7,3.8,0,6.6,3.1,6.6,7s-2.9,7-6.6,7c-1.6,0-3.2-.6-4.4-1.6Zm8.1-5.3c0-2.4-1.8-4.3-4-4.3s-4,1.8-4,4.1v.2c0,2.4,1.8,4.3,4,4.3s4-1.9,4-4.3Z" style="stroke-width:0px;"/><path d="m519.8,41.7c0-3.8,3.3-6.9,7.1-6.8,3.7,0,6.7,3.1,6.8,6.8,0,3.8-3.3,6.9-7.1,6.8-3.7,0-6.7-3.1-6.8-6.8Zm11,0c0-2.4-1.7-4.3-4-4.3s-4,1.9-4,4.3,1.7,4.3,4,4.3,4-1.9,4-4.3Z" style="stroke-width:0px;"/><path d="m535.9,36.2c.1-.8.9-1.4,1.7-1.2.6,0,1.1.6,1.2,1.2v6.4c0,2.2,1.3,3.4,3,3.4s3-1.2,3-3.4v-6.4c0-.8.6-1.4,1.4-1.5,0,0,0,0,0,0,.8,0,1.5.7,1.5,1.5v6.3c0,3.8-2.6,6.1-5.9,6.1s-5.9-2.4-5.9-6.1v-6.3Z" style="stroke-width:0px;"/><path d="m550.4,40.9c0-3.8,2.6-6.1,5.9-6.1s5.9,2.4,5.9,6.1v6.3c0,.8-.7,1.5-1.5,1.5s-1.5-.7-1.5-1.5v-6.4c0-2.2-1.3-3.3-3-3.3s-3,1.2-3,3.3v6.4c.1.8-.4,1.5-1.2,1.7-.8.1-1.5-.4-1.7-1.2,0-.1,0-.3,0-.4v-6.3Z" style="stroke-width:0px;"/><circle cx="500.2" cy="47.2" r="1.4" style="fill:#ffe800; stroke-width:0px;"/><path d="m458.3,41.7c0-3.8,2.9-6.9,6.7-7,0,0,.2,0,.2,0,3.8,0,6.9,2.9,7,6.7,0,0,0,.2,0,.3,0,3.8-2.9,6.9-6.7,7,0,0-.2,0-.3,0-3.8,0-6.9-2.9-7-6.7,0,0,0-.2,0-.2Zm11,0c0-2.4-1.7-4.3-4-4.3s-4,1.9-4,4.3,1.7,4.3,4,4.3,4-2,4-4.3Z" style="stroke-width:0px;"/><path d="m474.4,36.2c.1-.8.8-1.4,1.6-1.3.7,0,1.2.6,1.3,1.3v6.4c0,2.2,1.3,3.4,3,3.4s3-1.2,3-3.4v-6.4c0-.8.6-1.4,1.4-1.5,0,0,0,0,0,0,.8,0,1.5.7,1.5,1.5v6.3c0,3.8-2.6,6.1-5.9,6.1s-5.9-2.4-5.9-6.1v-6.3Z" style="stroke-width:0px;"/><path d="m487.3,36.3c0-.7.6-1.3,1.3-1.3,0,0,0,0,0,0h.9v-2c-.1-.8.4-1.5,1.2-1.7.8-.1,1.5.4,1.7,1.2,0,.1,0,.3,0,.4v2h3.1c.7,0,1.3.6,1.3,1.3,0,0,0,0,0,0,0,.7-.6,1.3-1.3,1.3h-3.1v4.7c0,2.3,1.3,3.5,3.1,3.5.7,0,1.4.6,1.4,1.4,0,.7-.6,1.4-1.4,1.4-3.4,0-6-2.4-6-6.2v-4.7h-.9c-.7,0-1.3-.6-1.3-1.3Z" style="stroke-width:0px;"/><rect x="561.4" y="40.3" width="17.3" height="2.9" rx="1.4" ry="1.4" transform="translate(171.3 451.2) rotate(-49.9)" style="stroke-width:0px;"/></g></g><polygon points="290 26.3 287 26.3 293.6 0 296.6 0 290 26.3" style="fill:#7bc5bf; stroke-width:0px;"/><polygon points="293 38 290 38 296.5 11.7 299.6 11.7 293 38" style="fill:#7bc5bf; stroke-width:0px;"/><polygon points="284.2 26.3 281.2 26.3 284.8 11.7 287.9 11.7 284.2 26.3" style="stroke-width:0px;"/><path d="m279.6,13.3c-.8-1.1-2.1-1.6-3.9-1.6-1.8,0-3.5.6-4.8,1.8,0,0,0-.1-.1-.2-.8-1.1-2.1-1.6-3.9-1.6-.9,0-1.8.1-2.6.4h0s-2.9-.4-2.9-.4l-3.7,14.6h3l.2-.7,1.6-6.3c.6-2.5,1.4-4.7,4.4-4.7.6,0,1.1.1,1.6.5.6.8.1,2.8,0,3.5l-1.9,7.7h3l1.7-7c.6-2.5,1.4-4.7,4.4-4.7.6,0,1.1.1,1.6.5.6.8.1,2.8,0,3.5l-1.9,7.7h3l1.7-7c.3-1.3,1-4.1-.5-6Z" style="stroke-width:0px;"/><circle cx="287.4" cy="7.3" r="1.5" style="stroke-width:0px;"/><polygon points="301.8 26.3 298.7 26.3 302.4 11.7 305.4 11.7 301.8 26.3" style="stroke-width:0px;"/><circle cx="299.1" cy="30.7" r="1.5" style="stroke-width:0px;"/><path d="m312.6,25.9c-.5,0-1,0-1.5-.2-1.8-.5-3.3-1.7-4.1-3.3-1.8-3.5-.7-7.7,2.5-10,1.5-1.1,3.4-1.4,5.2-1,3.6.9,5.8,4.8,4.8,8.8h0c-.8,3.4-3.7,5.7-6.8,5.7Zm.5-11.8c-.8,0-1.5.2-2.1.7-2,1.4-2.7,4.1-1.6,6.3.5.9,1.3,1.6,2.3,1.9,2.1.5,4.3-1,4.9-3.4s-.6-4.8-2.7-5.3c-.3,0-.6-.1-.8-.1Z" style="stroke-width:0px;"/><line x1="183.7" y1="88.8" x2="194.5" y2="120.9" style="fill:none; stroke:#1d252c; stroke-miterlimit:10;"/><line x1="393.7" y1="88.8" x2="382.9" y2="120.9" style="fill:none; stroke:#1d252c; stroke-miterlimit:10;"/><path d="m375.6,70.5c0,.5.4.9.9.9h2.7v-9h-3.6v8.1Z" style="stroke-width:0px;"/><path d="m380.6,49.8h-4.1c-.5,0-.9.4-.9.9v8.1h3.6v-5.4h1.4c.7,0,1.4.6,1.4,1.4v.5c0,1.5-.7,2.8-1.8,3.6h3.8c1.1-.8,1.6-2.1,1.6-3.6v-.5c0-2.7-2.2-5-5-5Z" style="stroke-width:0px;"/><path d="m383.9,62.4h-3.8l2.4,8.1c.2.5.7.9,1.2.9h2.9s-2.7-9-2.7-9Z" style="stroke-width:0px;"/><path d="m421.5,70.5c0,.5.4.9.9.9h2.7v-9h-3.6v8.1Z" style="stroke-width:0px;"/><path d="m426.5,49.8h-4.1c-.5,0-.9.4-.9.9v8.1h3.6v-5.4h1.4c.7,0,1.4.6,1.4,1.4v.5c0,1.5-.7,2.8-1.8,3.6h3.8c1.1-.8,1.6-2.1,1.6-3.6v-.5c0-2.7-2.2-5-5-5Z" style="stroke-width:0px;"/><path d="m429.8,62.4h-3.8l2.4,8.1c.2.5.7.9,1.2.9h2.9l-2.7-9Z" style="stroke-width:0px;"/><path d="m402.6,67.8v-5.4h-3.6v8.1c0,.5.4.9.9.9h8.1v-3.6h-5.4Z" style="stroke-width:0px;"/><path d="m399.9,49.8c-.5,0-.9.4-.9.9v8.1h3.6v-5.4h5.4v-3.6h-8.1Z" style="stroke-width:0px;"/><path d="m391.8,67.8v-5.4h-3.6v8.1c0,.5.4.9.9.9h8.1v-3.6h-5.4Z" style="stroke-width:0px;"/><path d="m389.1,49.8c-.5,0-.9.4-.9.9v8.1h3.6v-5.4h5.4v-3.6h-8.1Z" style="stroke-width:0px;"/><path d="m416.1,66.5c0,.7-.6,1.4-1.4,1.4h-1.4v-5.4h-3.6v8.1c0,.5.4.9.9.9h4.1c2.7,0,5-2.2,5-5v-4.1h-3.6v4.1Z" style="stroke-width:0px;"/><path d="m414.8,49.8h-4.1c-.5,0-.9.4-.9.9v8.1h3.6v-5.4h1.4c.7,0,1.4.6,1.4,1.4v4.1h3.6v-4.1c0-2.7-2.2-5-5-5Z" style="stroke-width:0px;"/><path d="m344.1,71.4h8.1v-3.6h-5.4v-5.4h-3.6v8.1c0,.5.4.9.9.9Z" style="stroke-width:0px;"/><path d="m346.8,58.8v-5.4h5.4v-3.6h-8.1c-.5,0-.9.4-.9.9v8.1h3.6Z" style="stroke-width:0px;"/><path d="m363.9,49.8h-8.1v3.6h5.4v5.4h3.6v-8.1c0-.5-.4-.9-.9-.9Z" style="stroke-width:0px;"/><path d="m361.2,62.4v5.4h-5.4v3.6h8.1c.5,0,.9-.4.9-.9v-8.1h-3.6Z" style="stroke-width:0px;"/></g><g id="i"><circle cx="288.7" cy="272.8" r="70.9" style="fill:none; stroke-width:0px;"/><polygon points="294.4 256.1 302.4 246.2 293.2 246.2 289.8 250.5 294.4 256.1" style="fill:#0069a7; stroke-width:0px;"/><polygon points="293.2 257.6 288.6 251.9 288.6 251.9 283.8 246.2 274.9 246.2 284.2 257.4 274.5 269.4 283.7 269.4 288.8 263.1 294 269.4 302.9 269.4 293.2 257.6 293.2 257.6" style="fill:#1d252c; stroke-width:0px;"/><path d="m251.7,283.4c0,.5-.1,1-.3,1.4s-.4.8-.8,1.1-.7.5-1.1.7c-.4.2-.9.2-1.5.2s-1.1-.1-1.6-.3-.9-.5-1.2-.9-.6-.9-.7-1.5-.3-1.2-.3-1.9v-1.4c0-.7,0-1.3.3-1.9s.4-1.1.8-1.5.7-.7,1.2-.9,1-.3,1.6-.3,1.1,0,1.5.2.8.4,1.1.7.6.7.7,1.1.3.9.3,1.5h-2c0-.3,0-.6-.1-.8s-.2-.4-.3-.6-.3-.3-.5-.3-.5-.1-.8-.1-.6,0-.8.2-.4.3-.6.6-.3.6-.3.9-.1.8-.1,1.3v1.4c0,1,.1,1.8.4,2.2s.7.7,1.4.7.9-.1,1.2-.4.5-.7.5-1.3h2Z" style="fill:#1d252c; stroke-width:0px;"/><path d="m256.8,285h4.8v1.6h-6.8v-10.3h2v8.7Z" style="fill:#1d252c; stroke-width:0px;"/><path d="m272,282.2c0,.7,0,1.3-.3,1.8s-.4,1-.8,1.4-.7.7-1.2.9-1,.3-1.6.3-1.1-.1-1.6-.3-.9-.5-1.2-.9-.6-.9-.7-1.4-.2-1.2-.2-1.8v-1.5c0-.7,0-1.3.2-1.8s.4-1,.7-1.4.7-.7,1.2-.9,1-.3,1.6-.3,1.1.1,1.6.3.9.5,1.2.9.6.9.8,1.4.3,1.2.3,1.8v1.5Zm-2-1.5c0-.4,0-.8-.1-1.2s-.2-.7-.3-.9-.3-.5-.6-.6-.5-.2-.8-.2-.6,0-.8.2-.4.3-.5.6-.2.6-.3.9,0,.7,0,1.2v1.5c0,.4,0,.8,0,1.2s.2.7.3.9.3.5.5.6.5.2.8.2.6,0,.8-.2.4-.3.6-.6.3-.6.3-.9.1-.7.1-1.2v-1.5Z" style="fill:#1d252c; stroke-width:0px;"/><path d="m281.8,276.3v6.8c0,.6,0,1.1-.2,1.5s-.4.8-.7,1.1-.7.5-1.1.7-.9.2-1.5.2-1,0-1.4-.2-.8-.4-1.1-.7-.5-.7-.7-1.1-.2-1-.2-1.5v-6.8h2v6.8c0,.7.1,1.2.4,1.5s.6.5,1,.5.9-.2,1.1-.5.4-.8.4-1.5v-6.8h2Z" style="fill:#1d252c; stroke-width:0px;"/><path d="m285,286.6v-10.3h2.7c.7,0,1.3.1,1.9.4s1,.6,1.4,1,.7.9.9,1.5.3,1.2.3,1.9v.8c0,.7-.1,1.3-.3,1.9s-.5,1.1-.9,1.5-.9.7-1.4,1-1.1.3-1.8.3h-2.8Zm2-8.7v7.1h.8c.4,0,.7,0,1-.2s.5-.3.7-.6.4-.6.5-1,.2-.8.2-1.3v-.9c0-.5,0-.9-.2-1.3s-.3-.7-.5-1-.5-.5-.8-.6-.7-.2-1.1-.2h-.7Z" style="fill:#1d252c; stroke-width:0px;"/><path d="m300.2,282.5l.7-6.2h1.8l-1.4,10.3h-1.8l-1-6.1-.9,6.1h-1.8l-1.4-10.3h1.8l.7,6.2.9-6.2h1.4l.9,6.2Z" style="fill:#1d252c; stroke-width:0px;"/><path d="m312.5,282.2c0,.7,0,1.3-.3,1.8s-.4,1-.8,1.4-.7.7-1.2.9-1,.3-1.6.3-1.1-.1-1.6-.3-.9-.5-1.2-.9-.6-.9-.7-1.4-.2-1.2-.2-1.8v-1.5c0-.7,0-1.3.2-1.8s.4-1,.7-1.4.7-.7,1.2-.9,1-.3,1.6-.3,1.1.1,1.6.3.9.5,1.2.9.6.9.8,1.4.3,1.2.3,1.8v1.5Zm-2-1.5c0-.4,0-.8-.1-1.2s-.2-.7-.3-.9-.3-.5-.6-.6-.5-.2-.8-.2-.6,0-.8.2-.4.3-.5.6-.2.6-.3.9,0,.7,0,1.2v1.5c0,.4,0,.8,0,1.2s.2.7.3.9.3.5.5.6.5.2.8.2.6,0,.8-.2.4-.3.6-.6.3-.6.3-.9.1-.7.1-1.2v-1.5Z" style="fill:#1d252c; stroke-width:0px;"/><path d="m318.9,282.8h-1.5v3.8h-2v-10.3h3.5c.6,0,1.1,0,1.5.2s.9.3,1.2.6.6.6.8,1,.3.8.3,1.3,0,.7-.1,1-.2.6-.4.8-.4.4-.6.6-.5.3-.8.5l2.2,4.3h0c0,0-2.1,0-2.1,0l-1.9-3.8Zm-1.5-1.6h1.5c.6,0,1-.1,1.3-.4s.5-.7.5-1.2-.1-.9-.4-1.2-.7-.4-1.3-.4h-1.5v3.2Z" style="fill:#1d252c; stroke-width:0px;"/><path d="m329,280l1.8-3.7h2.3l-2.9,5.1,3,5.2h-2.3l-1.9-3.7-1.9,3.7h-2.3l3-5.2-2.9-5.1h2.3l1.8,3.7Z" style="fill:#1d252c; stroke-width:0px;"/><path d="m246.8,296.1c0,.5-.1,1-.3,1.4s-.4.8-.8,1.1-.7.5-1.1.7c-.4.2-.9.2-1.5.2s-1.1-.1-1.6-.3-.9-.5-1.2-.9-.6-.9-.7-1.5-.3-1.2-.3-1.9v-1.4c0-.7,0-1.3.3-1.9s.4-1.1.8-1.5.7-.7,1.2-.9,1-.3,1.6-.3,1.1,0,1.5.2.8.4,1.1.7.6.7.7,1.1.3.9.3,1.5h-2c0-.3,0-.6-.1-.8s-.2-.4-.3-.6-.3-.3-.5-.3-.5-.1-.8-.1-.6,0-.8.2-.4.3-.6.6-.3.6-.3.9-.1.8-.1,1.3v1.4c0,1,.1,1.8.4,2.2s.7.7,1.4.7.9-.1,1.2-.4.5-.7.5-1.3h2Z" style="fill:#0069a7; stroke-width:0px;"/><path d="m257,294.9c0,.7,0,1.3-.3,1.8s-.4,1-.8,1.4-.7.7-1.2.9-1,.3-1.6.3-1.1-.1-1.6-.3-.9-.5-1.2-.9-.6-.9-.7-1.4-.2-1.2-.2-1.8v-1.5c0-.7,0-1.3.2-1.8s.4-1,.7-1.4.7-.7,1.2-.9,1-.3,1.6-.3,1.1.1,1.6.3.9.5,1.2.9.6.9.8,1.4.3,1.2.3,1.8v1.5Zm-2-1.5c0-.4,0-.8-.1-1.2s-.2-.7-.3-.9-.3-.5-.6-.6-.5-.2-.8-.2-.6,0-.8.2-.4.3-.5.6-.2.6-.3.9,0,.7,0,1.2v1.5c0,.4,0,.8,0,1.2s.2.7.3.9.3.5.5.6.5.2.8.2.6,0,.8-.2.4-.3.6-.6.3-.6.3-.9.1-.7.1-1.2v-1.5Z" style="fill:#0069a7; stroke-width:0px;"/><path d="m262.4,289l1,3.9,1.1-3.9h2.5v10.3h-1.8v-7.9c0,0-1.3,4.5-1.3,4.5h-1l-1.2-4.3v4.6c0,0,0,3,0,3h-1.8v-10.3h2.5Z" style="fill:#0069a7; stroke-width:0px;"/><path d="m272.2,295.5v3.8h-2v-10.3h3.5c.6,0,1.1,0,1.5.2s.8.4,1.2.7.6.6.7,1,.3.9.3,1.4,0,.9-.3,1.3-.4.7-.7,1-.7.5-1.2.7-1,.2-1.5.2h-1.5Zm0-1.6h1.5c.3,0,.5,0,.7-.1s.4-.2.5-.3.2-.3.3-.5.1-.4.1-.6,0-.5-.1-.7-.2-.4-.3-.5-.3-.3-.5-.4-.5-.1-.7-.1h-1.5v3.3Z" style="fill:#0069a7; stroke-width:0px;"/><path d="m287.4,294.9c0,.7,0,1.3-.3,1.8s-.4,1-.8,1.4-.7.7-1.2.9-1,.3-1.6.3-1.1-.1-1.6-.3-.9-.5-1.2-.9-.6-.9-.7-1.4-.2-1.2-.2-1.8v-1.5c0-.7,0-1.3.2-1.8s.4-1,.7-1.4.7-.7,1.2-.9,1-.3,1.6-.3,1.1.1,1.6.3.9.5,1.2.9.6.9.8,1.4.3,1.2.3,1.8v1.5Zm-2-1.5c0-.4,0-.8-.1-1.2s-.2-.7-.3-.9-.3-.5-.6-.6-.5-.2-.8-.2-.6,0-.8.2-.4.3-.5.6-.2.6-.3.9,0,.7,0,1.2v1.5c0,.4,0,.8,0,1.2s.2.7.3.9.3.5.5.6.5.2.8.2.6,0,.8-.2.4-.3.6-.6.3-.6.3-.9.1-.7.1-1.2v-1.5Z" style="fill:#0069a7; stroke-width:0px;"/><path d="m297.1,299.3h-2l-2.9-6.6v6.6h-2v-10.3h2l2.8,6.6v-6.6h2v10.3Z" style="fill:#0069a7; stroke-width:0px;"/><path d="m306.8,294.8h-4.2v2.9h4.9v1.6h-6.9v-10.3h6.9v1.6h-4.9v2.6h4.2v1.6Z" style="fill:#0069a7; stroke-width:0px;"/><path d="m317.3,299.3h-2l-2.9-6.6v6.6h-2v-10.3h2l2.8,6.6v-6.6h2v10.3Z" style="fill:#0069a7; stroke-width:0px;"/><path d="m328.2,290.6h-3.2v8.7h-2v-8.7h-3.1v-1.6h8.3v1.6Z" style="fill:#0069a7; stroke-width:0px;"/><path d="m336.2,296.6c0-.2,0-.4,0-.5s-.2-.3-.3-.4-.4-.3-.6-.4-.6-.2-.9-.3c-.4-.1-.9-.3-1.3-.5s-.8-.4-1.1-.7-.6-.6-.7-.9-.3-.7-.3-1.2,0-.8.3-1.2.4-.7.8-.9.7-.4,1.2-.6.9-.2,1.4-.2,1,0,1.5.2.8.4,1.1.7.6.6.7,1,.3.8.3,1.3h-1.9c0-.2,0-.4-.1-.6s-.2-.4-.3-.5-.3-.2-.5-.3-.5-.1-.8-.1-.5,0-.7,0-.4.2-.5.3-.2.3-.3.4-.1.3-.1.5,0,.4.1.5.2.3.4.4.4.2.7.3.6.2.9.3c.5.1.9.3,1.3.5s.7.4,1,.7.5.6.7.9.2.7.2,1.2,0,.9-.3,1.2-.4.6-.8.9-.7.4-1.1.6-.9.2-1.5.2-.6,0-1,0c-.3,0-.6-.1-.9-.3s-.6-.3-.8-.5-.5-.4-.7-.6-.3-.5-.4-.8-.2-.7-.2-1h2c0,.3,0,.6.2.8s.2.4.4.5.4.2.6.3.5,0,.8,0,.5,0,.7,0,.4-.1.5-.3.3-.2.3-.4.1-.3.1-.5Z" style="fill:#0069a7; stroke-width:0px;"/><rect x="257.2" y="86.1" width="65.5" height="69.6" rx="3.7" ry="3.7" style="fill:#ded5cf; stroke-width:0px;"/><path d="m286.3,120.5c1.4-1.5,3.4-2.4,5.6-2.4s5.4,1.6,6.8,4c1.2-.5,2.5-.8,3.8-.8,5.2,0,9.5,4.3,9.5,9.6s-4.3,9.6-9.5,9.6-1.3,0-1.9-.2c-1.2,2.1-3.5,3.6-6.1,3.6s-2.1-.3-3-.7c-1.2,2.8-4,4.8-7.3,4.8s-6.3-2.2-7.4-5.2c-.5.1-1,.2-1.5.2-4.1,0-7.4-3.3-7.4-7.4s1.5-5.2,3.7-6.4c-.5-1-.7-2.2-.7-3.4,0-4.7,3.8-8.6,8.6-8.6s5.2,1.3,6.8,3.4Z" style="fill:#00a1e0; stroke-width:0px;"/><path d="m274.3,133.1c0,0,0,0,0,.1,0,0,.2.1.3.2.4.2.9.3,1.3.3.9,0,1.5-.5,1.5-1.3h0c0-.7-.6-1-1.2-1.2h0c-.4-.2-.8-.3-.8-.6h0c0-.3.2-.5.6-.5s.9.1,1.1.3c0,0,0,0,.1,0,0,0,.2-.5.2-.5,0,0,0,0,0-.1-.3-.2-.8-.3-1.3-.3h0c-.8,0-1.4.5-1.4,1.2h0c0,.8.6,1,1.2,1.2h0c.4.2.8.3.8.6h0c0,.3-.2.5-.6.5s-.6,0-1.2-.3c0,0,0,0-.1,0,0,0,0,0-.1,0l-.2.5Z" style="fill:#fff; stroke-width:0px;"/><path d="m287.6,133.1c0,0,0,0,0,.1,0,0,.2.1.3.2.4.2.9.3,1.3.3.9,0,1.5-.5,1.5-1.3h0c0-.7-.6-1-1.2-1.2h0c-.4-.2-.8-.3-.8-.6h0c0-.3.2-.5.6-.5s.9.1,1.1.3c0,0,0,0,.1,0,0,0,.2-.5.2-.5,0,0,0,0,0-.1-.3-.2-.8-.3-1.3-.3h0c-.8,0-1.4.5-1.4,1.2h0c0,.8.6,1,1.2,1.2h0c.4.2.8.3.8.6h0c0,.3-.2.5-.6.5s-.6,0-1.2-.3c0,0-.1,0-.1,0,0,0,0,0-.1,0l-.2.5Z" style="fill:#fff; stroke-width:0px;"/><path d="m297.3,130.8c0-.3-.2-.5-.3-.7-.2-.2-.3-.3-.6-.4-.2-.1-.5-.2-.8-.2s-.6,0-.8.2c-.2.1-.4.3-.6.4-.2.2-.3.4-.3.7,0,.2-.1.5-.1.8s0,.6.1.8c0,.3.2.5.3.7.2.2.3.3.6.4.2.1.5.2.8.2s.6,0,.8-.2c.2-.1.4-.3.6-.4.2-.2.3-.4.3-.7,0-.2.1-.5.1-.8s0-.6-.1-.8m-.8.8c0,.4,0,.8-.2,1-.2.2-.4.4-.7.4s-.6-.1-.7-.4c-.2-.2-.2-.6-.2-1s0-.8.2-1c.2-.2.4-.4.7-.4s.6.1.7.4c.2.2.2.6.2,1" style="fill:#fff; stroke-width:0px;"/><path d="m303.5,132.9c0,0,0,0,0,0-.1,0-.2,0-.4.1-.1,0-.3,0-.4,0-.4,0-.7-.1-.9-.3-.2-.2-.3-.6-.3-1,0-.4.1-.7.3-1,.2-.2.5-.4.8-.4s.5,0,.8.1c0,0,0,0,0,0,0-.2.1-.3.2-.5,0,0,0,0,0,0,0,0-.3-.1-.5-.1-.2,0-.4,0-.6,0-.3,0-.6,0-.8.2-.2.1-.4.3-.6.4-.2.2-.3.4-.4.7,0,.2-.1.5-.1.8,0,.6.2,1.1.5,1.5.3.4.8.6,1.5.6s.8,0,1.1-.2c0,0,0,0,0,0l-.2-.5Z" style="fill:#fff; fill-rule:evenodd; stroke-width:0px;"/><path d="m307.4,130.7c0-.2-.2-.5-.3-.6-.2-.2-.3-.3-.5-.4-.2,0-.5-.1-.7-.1s-.6,0-.8.2c-.2.1-.4.3-.6.4-.2.2-.3.4-.3.7,0,.3-.1.5-.1.8s0,.6.1.8c0,.2.2.5.4.6.2.2.4.3.6.4.3,0,.6.2.9.2.7,0,1.1-.2,1.3-.3,0,0,0,0,0-.1l-.2-.5c0,0,0,0,0,0-.2,0-.4.2-1,.2-.4,0-.7-.1-.9-.3-.2-.2-.3-.5-.3-.8h2.6s0,0,0,0c0,0,0-.5,0-1.1Zm-2.5.5c0-.2.1-.4.2-.6.2-.2.4-.4.7-.4s.6.1.7.4c.1.2.2.4.2.6h-1.8Z" style="fill:#fff; fill-rule:evenodd; stroke-width:0px;"/><path d="m286.9,130.7c0-.2-.2-.5-.3-.6-.2-.2-.3-.3-.5-.4-.2,0-.5-.1-.7-.1s-.6,0-.8.2c-.2.1-.4.3-.6.4-.2.2-.3.4-.3.7,0,.3-.1.5-.1.8s0,.6.1.8c0,.2.2.5.4.6.2.2.4.3.6.4.3,0,.6.2.9.2.7,0,1.1-.2,1.3-.3,0,0,0,0,0-.1l-.2-.5c0,0,0,0,0,0-.2,0-.4.2-1,.2-.4,0-.7-.1-.9-.3-.2-.2-.3-.5-.3-.8h2.6s0,0,0,0c0,0,0-.5,0-1.1Zm-2.5.5c0-.2.1-.4.2-.6.2-.2.4-.4.7-.4s.6.1.7.4c.1.2.2.4.2.6h-1.8Z" style="fill:#fff; fill-rule:evenodd; stroke-width:0px;"/><path d="m279.9,131.1c-.1,0-.2,0-.4,0s-.4,0-.6,0c-.2,0-.4.1-.5.2-.2.1-.3.3-.4.4,0,.2-.1.4-.1.6s0,.4.1.6c0,.2.2.3.3.4.1.1.3.2.5.2.2,0,.4,0,.7,0s.5,0,.8,0c.3,0,.6-.1.6-.1,0,0,.2,0,.2,0,0,0,0,0,0,0v-2.3c0-.5-.1-.9-.4-1.1-.3-.2-.7-.4-1.2-.4s-.5,0-.7,0c0,0-.6.1-.8.3,0,0,0,0,0,.1l.2.5c0,0,0,0,0,0,0,0,0,0,0,0,.5-.3,1.1-.3,1.1-.3.3,0,.5,0,.6.2.1.1.2.3.2.6h0c-.2,0-.4,0-.4,0Zm-1,1.8c-.1,0-.1,0-.1-.2,0,0,0-.2,0-.3,0-.2,0-.4.2-.5,0,0,.2-.2.7-.2.4,0,.7,0,.7,0v1.2h0s-.3,0-.7,0c-.5,0-.8-.1-.7-.1Z" style="fill:#fff; stroke-width:0px;"/><path d="m300.5,129.8c0,0,0,0,0,0,0,0-.3,0-.4,0-.3,0-.5,0-.7.1-.2,0-.3.2-.4.3v-.3s0,0,0,0h-.7s0,0,0,0v3.8s0,0,0,0h.7s0,0,0,0v-1.9c0-.3,0-.5,0-.7,0-.2.1-.3.2-.4,0,0,.2-.2.3-.2.1,0,.3,0,.3,0,.1,0,.3,0,.3,0,0,0,0,0,0,0,0-.1.2-.5.2-.5Z" style="fill:#fff; fill-rule:evenodd; stroke-width:0px;"/><path d="m294.2,128c0,0-.2,0-.3,0,0,0-.2,0-.3,0-.5,0-.8.1-1.1.4-.3.3-.4.6-.5,1.2v.2h-.6s0,0,0,0v.5c-.1,0,0,0,0,0h.6l-.6,3.2c0,.3,0,.5-.2.6,0,.2-.1.3-.2.4,0,0-.1.1-.2.2,0,0-.2,0-.3,0s-.1,0-.2,0c0,0,0,0-.1,0,0,0,0,0,0,0,0,0-.2.5-.2.5,0,0,0,0,0,.1,0,0,.1,0,.2,0,.1,0,.3,0,.4,0,.2,0,.4,0,.6,0,.2,0,.3-.2.5-.3.1-.2.2-.3.3-.6,0-.2.2-.5.2-.9l.6-3.3h.8s0,0,0,0v-.5c.1,0,0,0,0,0h-.8s0-.3.1-.6c0-.1.1-.2.2-.3,0,0,.1-.1.2-.1,0,0,.2,0,.3,0s.2,0,.2,0c0,0,.1,0,.1,0,0,0,0,0,.1,0l.2-.5c0,0,0,0,0,0Z" style="fill:#fff; fill-rule:evenodd; stroke-width:0px;"/><path d="m282.8,133.5s0,0,0,0h-.7s0,0,0,0v-5.5s0,0,0,0h.7s0,0,0,0v5.5Z" style="fill:#fff; fill-rule:evenodd; stroke-width:0px;"/><path d="m270.3,100.7v-.4h0c-.2.4-.7.6-1.2.6-1.2,0-2-.9-2-2.2s.9-2.2,2-2.2,1,.2,1.2.6h0v-.4h1.2v4.1h-1.2Zm0-2c0-.6-.5-1-1-1s-1,.5-1,1,.4,1,1,1,1-.5,1-1Z" style="fill:#032e61; stroke-width:0px;"/><path d="m273.4,100.7l-1.5-4.1h1.3l.8,2.5h0l.8-2.5h1.3l-1.5,4.1h-1.2Z" style="fill:#032e61; stroke-width:0px;"/><path d="m279.4,100.7v-.4h0c-.2.4-.7.6-1.2.6-1.2,0-2-.9-2-2.2s.9-2.2,2-2.2,1,.2,1.2.6h0v-.4h1.2v4.1h-1.2Zm0-2c0-.6-.5-1-1-1s-1,.5-1,1,.4,1,1,1,1-.5,1-1Z" style="fill:#032e61; stroke-width:0px;"/><path d="m281.5,96.2v-.9h1.2v.9h-1.2Zm0,4.5v-4.1h1.2v4.1h-1.2Z" style="fill:#032e61; stroke-width:0px;"/><path d="m283.6,100.7v-5.4h1.2v5.4h-1.2Z" style="fill:#032e61; stroke-width:0px;"/><path d="m288.7,100.7v-.4h0c-.2.4-.7.6-1.2.6-1.2,0-2-.9-2-2.2s.9-2.2,2-2.2,1,.2,1.2.6h0v-.4h1.2v4.1h-1.2Zm0-2c0-.6-.5-1-1-1s-1,.5-1,1,.4,1,1,1,1-.5,1-1Z" style="fill:#032e61; stroke-width:0px;"/><path d="m290.7,100.7v-5.4h1.2v1.7c.3-.3.7-.5,1.2-.5,1.1,0,2,.8,2,2.1s-.8,2.2-2.1,2.2-1-.2-1.2-.6h0v.4h-1.2Zm3.2-2c0-.5-.4-1-1-1s-1,.5-1,1,.4,1,1,1,1-.5,1-1Z" style="fill:#032e61; stroke-width:0px;"/><path d="m295.8,100.7v-5.4h1.2v5.4h-1.2Z" style="fill:#032e61; stroke-width:0px;"/><path d="m298.8,99c0,.5.5.8,1,.8s.5-.1.7-.4h1.2c-.4.9-1.1,1.4-2,1.4s-2.2-.9-2.2-2.2.9-2.2,2.1-2.2,2.1,1,2.1,2.2,0,.2,0,.3h-3.1Zm1.9-.8c0-.4-.5-.7-.9-.7s-.8.3-.9.7h1.8Z" style="fill:#032e61; stroke-width:0px;"/><path d="m306.1,100.8c-1.2,0-2.2-.9-2.2-2.2s1-2.2,2.2-2.2,2.2.9,2.2,2.1-1,2.2-2.2,2.2Zm1-2.2c0-.5-.4-1-1-1s-1,.5-1,1,.4,1,1,1,1-.5,1-1Z" style="fill:#032e61; stroke-width:0px;"/><path d="m311.5,100.7v-2.3c0-.5-.2-.8-.6-.8s-.7.3-.7.8v2.2h-1.2v-4.1h1.1v.4h0c.3-.4.6-.6,1.1-.6.7,0,1.5.4,1.5,1.6v2.6h-1.2Z" style="fill:#032e61; stroke-width:0px;"/><path d="m267.6,109.3l-.3-.8h-1.9l-.3.8h-1.5l2.2-5.4h1.1l2.2,5.4h-1.5Zm-1.2-3.7h0s-.6,1.8-.6,1.8h1.1l-.6-1.8Z" style="fill:#032e61; stroke-width:0px;"/><path d="m269.6,110.6v-5.4h1.1v.4h0c.3-.4.8-.6,1.3-.6,1.2,0,2,.9,2,2.2s-.8,2.1-2,2.1-.9-.1-1.2-.5v1.7h-1.2Zm3.2-3.4c0-.6-.4-1-1-1s-1,.5-1,1,.4,1,1,1,1-.5,1-1Z" style="fill:#032e61; stroke-width:0px;"/><path d="m274.7,110.6v-5.4h1.1v.4h0c.3-.4.8-.6,1.3-.6,1.2,0,2,.9,2,2.2s-.8,2.1-2,2.1-.9-.1-1.2-.5v1.7h-1.2Zm3.2-3.4c0-.6-.4-1-1-1s-1,.5-1,1,.4,1,1,1,1-.5,1-1Z" style="fill:#032e61; stroke-width:0px;"/><path d="m279.8,109.3v-5.4h3v1.2h-1.7v.8h1.6v1.2h-1.6v.9h1.7v1.2h-3Z" style="fill:#032e61; stroke-width:0px;"/><path d="m286.3,109.3l-.8-1.3-.8,1.3h-1.5l1.5-2.2-1.4-1.9h1.5l.7,1.1.7-1.1h1.4l-1.4,1.9,1.6,2.2h-1.5Z" style="fill:#032e61; stroke-width:0px;"/><path d="m290.8,106.8c-.2-.4-.5-.6-.9-.6s-.9.5-.9,1,.4,1,1,1,.7-.2.9-.5h1.2c-.2,1-1.1,1.7-2.2,1.7s-2.2-1-2.2-2.2,1-2.2,2.1-2.2,1.9.7,2.2,1.7h-1.2Z" style="fill:#032e61; stroke-width:0px;"/><path d="m295.2,109.3v-2.2c0-.5-.2-.8-.7-.8s-.7.3-.7.8v2.3h-1.2v-5.4h1.2v1.7c.2-.3.6-.5,1.1-.5.9,0,1.5.6,1.5,1.6v2.6h-1.2Z" style="fill:#032e61; stroke-width:0px;"/><path d="m300.3,109.3v-.4h0c-.2.4-.7.6-1.2.6-1.2,0-2-.9-2-2.2s.9-2.2,2-2.2,1,.2,1.2.6h0v-.4h1.2v4.1h-1.2Zm0-2c0-.6-.5-1-1-1s-1,.5-1,1,.4,1,1,1,1-.5,1-1Z" style="fill:#032e61; stroke-width:0px;"/><path d="m304.9,109.3v-2.3c0-.5-.2-.8-.6-.8s-.7.3-.7.8v2.2h-1.2v-4.1h1.1v.4h0c.3-.4.6-.6,1.1-.6.7,0,1.5.4,1.5,1.6v2.6h-1.2Z" style="fill:#032e61; stroke-width:0px;"/><path d="m309.9,108.8c-.2.4-.6.6-1.1.6-1.2,0-2-.9-2-2.1s.9-2.2,2-2.2.9.2,1.1.5h0v-.4h1.2v3.6c0,.5,0,1-.2,1.2-.3.6-1.1,1-2.1,1s-1.9-.7-2-1.4h1.4c.1.3.4.4.7.4.6,0,1-.4,1-1.1h0Zm0-1.5c0-.6-.4-1-1-1s-1,.5-1,1,.4,1,1,1,1-.4,1-1Z" style="fill:#032e61; stroke-width:0px;"/><path d="m313,107.6c0,.5.5.8,1,.8s.5-.1.7-.4h1.2c-.4.9-1.1,1.4-2,1.4s-2.2-.9-2.2-2.2.9-2.2,2.1-2.2,2.1,1,2.1,2.2,0,.2,0,.3h-3.1Zm1.9-.8c0-.4-.5-.7-.9-.7s-.8.3-.9.7h1.8Z" style="fill:#032e61; stroke-width:0px;"/><circle cx="288.7" cy="120.9" r="70.9" style="fill:none; stroke-width:0px;"/></g></svg>