<svg height="35" width="120" xmlns="http://www.w3.org/2000/svg"><mask id="a" fill="#fff"><path d="M0 .105h.5v.29H0z" fill-rule="evenodd"/></mask><mask id="b" fill="#fff"><path d="M0 0h20.978v19.095H0z" fill-rule="evenodd"/></mask><g fill="none" fill-rule="evenodd"><path d="M50.772 8.876c-.886 0-1.617.016-2.194.048a.572.572 0 00-.537.574v6.709c0 .317.257.575.574.575h1.524c.958 0 1.82-.062 2.587-.187.767-.125 1.414-.335 1.94-.633a3.119 3.119 0 001.222-1.221c.288-.518.432-1.18.432-1.984 0-.767-.149-1.399-.446-1.897a3.358 3.358 0 00-1.207-1.193c-.508-.297-1.097-.503-1.768-.619a12.607 12.607 0 00-2.127-.172m-.23-2.443c2.797 0 4.949.531 6.453 1.595 1.505 1.064 2.257 2.65 2.257 4.758 0 1.15-.206 2.132-.618 2.946a5.071 5.071 0 01-1.782 1.984c-.776.508-1.72.877-2.832 1.107-1.112.23-2.367.345-3.766.345h-1.639a.575.575 0 00-.574.575v6.238a.575.575 0 01-.575.575h-1.639a.575.575 0 01-.575-.575V7.384c0-.27.185-.51.45-.563a16.616 16.616 0 012.18-.288c.968-.067 1.855-.1 2.66-.1M67.845 26.34a.57.57 0 01-.594.48c-1.382-.094-2.38-.44-2.997-1.04-.69-.671-1.035-1.716-1.035-3.134V5.192c0-.28.201-.52.477-.567l1.524-.262c.351-.06.672.21.672.567v17.285c0 .441.039.805.116 1.093.076.287.2.517.373.69.173.172.403.301.69.387.15.045.318.086.505.124.308.061.516.35.464.66zm9.058-1.71c.632 0 1.193-.015 1.681-.043.27-.016.516-.04.736-.07a.57.57 0 00.486-.57v-3.562a.575.575 0 00-.442-.562 6.09 6.09 0 00-.492-.095c-.431-.067-.954-.1-1.567-.1-.402 0-.83.028-1.28.086-.45.057-.862.177-1.235.36a2.648 2.648 0 00-.934.747c-.25.316-.374.733-.374 1.25 0 .959.306 1.624.92 1.998.613.374 1.446.56 2.5.56m-.23-13.396c1.074 0 1.98.14 2.717.417.738.278 1.332.671 1.783 1.179a4.47 4.47 0 01.963 1.811c.191.7.287 1.471.287 2.314v8.855a.57.57 0 01-.479.567l-.484.08c-.412.067-.877.128-1.394.186s-1.078.11-1.682.158a22.7 22.7 0 01-1.797.072c-.843 0-1.62-.086-2.328-.259-.71-.172-1.323-.445-1.84-.82a3.749 3.749 0 01-1.207-1.48c-.288-.613-.432-1.35-.432-2.213 0-.824.168-1.533.503-2.127a4.014 4.014 0 011.366-1.438c.575-.364 1.246-.632 2.012-.805a10.978 10.978 0 012.415-.258c.268 0 .546.014.834.043.287.029.56.067.82.115a42.995 42.995 0 011.077.215v-.747c0-.44-.048-.877-.144-1.308a3.005 3.005 0 00-.517-1.15c-.25-.335-.59-.604-1.02-.805s-.992-.302-1.682-.302c-.882 0-1.653.063-2.314.187-.331.062-.62.126-.867.19a.57.57 0 01-.71-.474l-.153-1.075a.575.575 0 01.411-.635 12.7 12.7 0 011.247-.277 14.89 14.89 0 012.616-.216M99.47 25.67a.572.572 0 01-.447.56c-.544.122-1.204.25-1.983.383-1.006.173-2.17.259-3.493.259-1.15 0-2.118-.168-2.903-.503-.786-.335-1.419-.81-1.898-1.423-.48-.613-.824-1.337-1.035-2.17-.21-.834-.316-1.758-.316-2.775v-7.82c0-.317.257-.574.575-.574h1.523c.318 0 .576.257.576.575v7.245c0 1.82.287 3.124.862 3.91.575.785 1.542 1.178 2.903 1.178.288 0 .585-.01.892-.029.306-.019.593-.043.862-.072.268-.028.513-.057.733-.086.22-.029.378-.062.474-.1V12.181c0-.318.258-.575.575-.575h1.524c.318 0 .575.257.575.575zm8.393-14.063h4.513c.318 0 .576.258.576.575v1.092a.575.575 0 01-.576.575h-4.513a.575.575 0 00-.575.575v6.325c0 .747.058 1.365.172 1.854.115.489.288.872.518 1.15.23.278.518.474.862.589.345.115.748.173 1.208.173.805 0 1.451-.091 1.94-.273l.413-.155a.572.572 0 01.758.409l.256 1.097a.57.57 0 01-.355.669c-.25.092-.564.195-.942.308-.671.201-1.438.302-2.3.302-1.016 0-1.854-.13-2.516-.388-.66-.259-1.192-.647-1.595-1.164-.402-.518-.686-1.155-.848-1.912-.163-.757-.244-1.634-.244-2.63V7.923c0-.28.201-.519.477-.566l1.524-.262c.351-.06.672.21.672.566v3.371c0 .318.258.575.575.575m11.297 14.949h-1.523a.575.575 0 01-.575-.575v-13.8c0-.317.258-.574.575-.574h1.524c.317 0 .575.257.575.575V25.98a.575.575 0 01-.575.575" fill="#1b1e2e"/><path d="M116.855 7.022a1.601 1.601 0 113.088-.849 1.601 1.601 0 01-3.088.85" fill="#04b3e7"/><path d="M.24.162C.24.15.25.15.25.14.26.14.26.13.26.13" fill="#fff" mask="url(#a)" transform="translate(40.644)"/><g fill="#04b3e7"><path d="M20.978.474v13.714c0 .17-.09.326-.236.41l-7.679 4.433a.473.473 0 01-.473 0L.237 11.9A.473.473 0 010 11.49V7.183c0-.364.394-.592.71-.41l3.965 2.29 3.071 1.772 4.844 2.796a.473.473 0 00.473 0l3.017-1.742a.473.473 0 00.236-.41V2.64c0-.168.09-.324.235-.409L20.267.065a.473.473 0 01.711.41" mask="url(#b)" transform="translate(0 15.35)"/><path d="M24.64 21.29l3.874-2.237a.398.398 0 01.597.345v5.516c0 .169-.09.325-.236.409l-3.726 2.152a.47.47 0 01-.708-.41v-5.43c0-.142.076-.273.2-.344m-4.449 4.621v-.009m8.683-18.249L15.398.162a.799.799 0 00-.815.011L.235 8.187a.663.663 0 00-.18.175l.85.497-.85-.498A.607.607 0 000 8.596v8.863c0 .175.09.325.234.415l4.441 2.56 3.071 1.773 4.369 2.524a.473.473 0 00.709-.409V20.02a.49.49 0 00-.234-.408l-.325-.187-2.896-1.67-.03-.012-4.423-2.56a.478.478 0 01-.24-.415v-3.473c0-.072.029-.137.053-.197l.003.002 7.868 4.55c.14.084.326.084.466 0l3.22-1.855.012-.011 4.45-2.568a.487.487 0 01.473-.006l2.99 1.725c.134.085.23.242.23.41v3.374c0 .306.332.498.597.345l3.874-2.238a.398.398 0 00.2-.345V8.064a.474.474 0 00-.237-.41"/></g></g></svg>