<?xml version="1.0" standalone="no"?>
<!DOCTYPE svg PUBLIC "-//W3C//DTD SVG 20010904//EN"
 "http://www.w3.org/TR/2001/REC-SVG-20010904/DTD/svg10.dtd">
<svg version="1.0" xmlns="http://www.w3.org/2000/svg"
 width="16.000000pt" height="16.000000pt" viewBox="0 0 16.000000 16.000000"
 preserveAspectRatio="xMidYMid meet">
<metadata>
Created by potrace 1.11, written by Peter Selinger 2001-2013
</metadata>
<g transform="translate(0.000000,16.000000) scale(0.001563,-0.001563)"
fill="#000000" stroke="none">
<path d="M170 9310 c0 -3 13 -20 28 -39 43 -53 319 -390 374 -456 27 -33 55
-67 61 -75 36 -45 435 -532 467 -570 21 -25 62 -75 92 -111 29 -36 143 -176
253 -310 110 -134 207 -253 216 -264 9 -11 41 -49 71 -85 29 -36 155 -189 278
-340 124 -151 233 -284 242 -295 34 -41 632 -771 662 -809 17 -22 38 -47 46
-56 8 -9 53 -63 100 -121 47 -57 92 -113 102 -124 24 -29 175 -213 212 -259
17 -21 50 -61 72 -89 l42 -50 -42 -53 c-96 -121 -440 -549 -446 -554 -3 -3
-151 -187 -330 -410 -178 -223 -330 -412 -337 -420 -7 -8 -81 -100 -164 -205
-84 -104 -155 -192 -158 -195 -4 -3 -31 -36 -61 -75 -30 -38 -57 -72 -60 -75
-3 -3 -21 -25 -40 -50 -19 -25 -41 -52 -47 -60 -7 -8 -65 -80 -129 -160 -63
-80 -123 -154 -132 -165 -10 -11 -44 -54 -77 -95 -33 -41 -67 -84 -77 -95 -9
-11 -134 -166 -277 -345 -144 -179 -268 -332 -275 -341 -8 -10 -38 -48 -67
-85 -30 -38 -58 -74 -64 -80 -12 -13 7 11 -384 -476 -171 -213 -311 -388 -311
-390 0 -2 746 -3 1658 -3 l1657 0 68 85 c38 47 76 94 85 105 10 11 89 110 177
220 88 110 162 202 165 205 3 3 41 50 85 105 44 55 85 107 92 115 24 29 371
461 627 780 143 179 263 327 266 330 3 3 66 81 139 173 107 133 137 165 146
155 7 -7 63 -76 126 -153 62 -77 116 -142 119 -145 3 -3 43 -52 89 -110 47
-58 99 -121 115 -141 53 -63 71 -85 443 -539 164 -201 443 -540 619 -755 175
-214 326 -399 336 -410 16 -20 22 -20 1612 -20 878 0 1596 3 1596 7 0 6 -153
197 -258 323 -10 11 -69 83 -131 160 -63 77 -145 176 -181 220 -37 44 -162
197 -279 340 -117 143 -220 269 -229 280 -56 67 -109 132 -124 150 -9 11 -53
65 -98 120 -45 55 -96 118 -115 140 -18 22 -64 79 -103 127 -39 47 -80 97 -90
110 -11 13 -73 88 -138 168 -65 80 -131 161 -148 180 -17 20 -47 55 -66 80
-48 60 -441 540 -619 755 -104 126 -105 128 -446 545 -169 206 -324 395 -345
420 -21 25 -92 113 -159 195 -67 83 -137 168 -155 190 -19 22 -111 135 -206
250 -94 116 -187 228 -205 250 -19 23 -60 73 -92 112 -32 39 -94 115 -138 169
-44 54 -114 139 -155 190 -159 195 -565 690 -575 700 -5 6 -23 28 -40 49 -16
21 -34 43 -40 49 -5 6 -28 34 -50 61 -22 28 -48 59 -57 70 -9 11 -53 65 -98
120 -45 55 -90 109 -100 121 -9 11 -221 270 -471 575 -249 305 -509 622 -577
704 -68 83 -129 157 -135 165 -81 100 -240 290 -245 291 -22 4 -3192 3 -3192
-1z"/>
<path d="M6743 9305 c-5 -5 -164 -203 -353 -440 -189 -236 -347 -432 -350
-435 -3 -3 -59 -72 -125 -155 -66 -82 -122 -152 -125 -155 -9 -9 -276 -345
-283 -357 -4 -6 20 -43 55 -85 35 -41 117 -141 183 -223 66 -81 125 -153 130
-159 6 -6 71 -85 145 -176 74 -91 159 -194 189 -230 29 -36 61 -74 70 -85 90
-111 378 -463 386 -471 5 -7 17 -20 25 -30 23 -29 283 -346 302 -369 9 -11 53
-65 98 -120 45 -55 84 -99 87 -98 2 1 36 42 74 90 39 48 78 97 87 108 41 48
140 172 171 214 19 25 37 48 41 51 3 3 89 109 190 235 102 127 187 232 190
235 3 3 95 118 205 255 110 138 207 259 217 270 15 18 290 360 358 445 201
252 254 318 270 336 10 12 42 52 71 90 30 38 56 71 59 74 3 3 62 75 130 160
69 85 127 157 130 160 3 3 39 48 80 100 41 52 77 97 80 100 3 3 17 21 32 42
15 20 33 42 40 50 8 7 38 45 68 83 30 39 57 72 60 75 3 3 21 25 40 50 19 25
37 47 40 50 8 7 245 303 252 315 8 14 -3306 14 -3319 0z"/>
</g>
</svg>
