<?xml version="1.0" encoding="utf-8"?>
<!-- Generator: Adobe Illustrator 23.0.3, SVG Export Plug-In . SVG Version: 6.00 Build 0)  -->
<svg version="1.1" id="Ebene_1" xmlns="http://www.w3.org/2000/svg" xmlns:xlink="http://www.w3.org/1999/xlink" x="0px" y="0px"
	 viewBox="0 0 483.8 98.9" style="enable-background:new 0 0 483.8 98.9;" xml:space="preserve">
<style type="text/css">
	.st0{fill:#A7A700;}
	.st1{fill:#181B1D;}
</style>
<title>x.legaltech</title>
<polygon class="st0" points="55.5,61.9 77.9,34 52.2,34 42.5,46.1 "/>
<polygon class="st1" points="52.2,66 39.2,50.2 39.2,50.2 26,34 1.2,34 27,65.4 0,98.9 25.7,98.9 39.9,81.2 54.4,98.9 79.2,98.9 "/>
<path d="M87.3,0.4h10.1V54c0,2.4,0.3,3.8,3,3.8c0.3,0,0.7,0,1-0.1l0.7,7.5c-1.9,0.5-3.9,0.8-5.9,0.7c-7,0-8.9-4.7-8.9-11.9L87.3,0.4
	z"/>
<path d="M122.2,33.1c11.8,0,16.6,7.8,16.6,17c0,0.9-0.1,1.7-0.2,2.6h-23.1c0,4.1,3.8,6,8.8,6c3.3,0,6.6-0.7,9.7-2.2l3.7,6.2
	c-1.4,0.9-6.5,3.6-14.3,3.6c-13.1,0-18.3-7.7-18.3-16.4C105,40.9,110.3,33.1,122.2,33.1z M115.5,46.3h13.3c-0.1-3.5-2.7-6-6.5-6
	C118.3,40.2,115.7,42.8,115.5,46.3z"/>
<path d="M158.5,33.1c6.3,0,9.2,2.3,10.2,4.2V34h10.2v31.4c0,10.4-7,16.6-19.3,16.6c-6.2,0-12.7-1.7-16.6-5.7l5-6.3
	c3.2,2.5,7.1,3.9,11.2,4c4.4,0,9.6-2.2,9.6-8.4v-3.3c-0.9,1.7-4.8,4.1-10.3,4.1c-9.9,0-15.4-6.5-15.4-16.4
	C143,39.9,148.7,33.1,158.5,33.1z M161.6,58.2c4.4,0,7.8-3,7.8-8.4c0-5.1-3.2-8.7-7.8-8.7c-4.4,0-7.7,3.2-7.7,8.7
	S157.1,58.2,161.6,58.2L161.6,58.2z"/>
<path d="M200.4,33.1c6.1,0,9,2.2,10.1,4.1V34h10.2v31.4h-10.2v-3c-1.1,1.7-4.9,3.9-10.2,3.9c-9.9,0-15.4-6.5-15.4-16.4
	C184.8,39.9,190.5,33.1,200.4,33.1z M203.4,58.2c4.4,0,7.8-3,7.8-8.4c0-5.1-3.2-8.7-7.8-8.7c-4.4,0-7.7,3.2-7.7,8.7
	S198.9,58.2,203.4,58.2z"/>
<path d="M228.1,0.4h10.1V54c0,2.4,0.3,3.8,3,3.8c0.3,0,0.7,0,1-0.1l0.7,7.5c-1.9,0.5-3.9,0.8-5.9,0.7c-7,0-8.9-4.7-8.9-11.9
	L228.1,0.4z"/>
<path d="M249.8,55.4V41.8h-4.1V34h4.1v-8H260v8h6.3v7.8H260v10c0,4.6,1.1,5.5,3.4,5.5c0.8,0,1.5-0.1,2.3-0.3l1.3,7.8
	c-4,1.2-5.3,1.4-8.5,1.4C253.7,66.3,249.8,64.3,249.8,55.4z"/>
<path d="M288,33.1c11.8,0,16.6,7.8,16.6,17c0,0.9-0.1,1.7-0.2,2.6h-23.1c0,4.1,3.8,6,8.8,6c3.3,0,6.6-0.7,9.7-2.2l3.7,6.2
	c-1.4,0.9-6.5,3.6-14.3,3.6c-13.1,0-18.3-7.7-18.3-16.4C270.9,40.9,276.2,33.1,288,33.1z M281.3,46.3h13.3c-0.1-3.5-2.7-6-6.5-6
	C284.1,40.2,281.5,42.8,281.3,46.3z"/>
<path d="M326.7,57.6c2.2-0.1,4.3-0.8,6.1-2.1l5.7,6c-3.4,3.2-8,4.9-12.7,4.8c-10.6,0-17-6.8-17-16.6c0-10.1,6.6-16.6,17-16.6
	c4.8,0,9.5,1.4,12.7,4.7l-6,6c-1.7-1.4-3.8-2.1-6-2.1c-5.1,0-7.8,3.3-7.8,7.9C318.9,54.4,321.7,57.6,326.7,57.6z"/>
<path d="M353.9,65.4h-10.1v-65h10.1v36.8c2.2-2.6,5.5-4.2,9.8-4.2c8.8,0,13.1,5.8,13.1,14.6v17.7h-10.2V47.9c0-4.3-2.3-6.9-6.3-6.9
	c-3.8,0-6.4,2.3-6.4,6.9V65.4z"/>
</svg>
