<?xml version="1.0" encoding="utf-8"?>
<!-- Generator: Adobe Illustrator 27.9.0, SVG Export Plug-In . SVG Version: 6.00 Build 0)  -->
<svg version="1.1" id="Layer_1" xmlns="http://www.w3.org/2000/svg" xmlns:xlink="http://www.w3.org/1999/xlink" x="0px" y="0px"
	 viewBox="0 0 128 64" style="enable-background:new 0 0 128 64;" xml:space="preserve">
<style type="text/css">
	.st0{fill:none;stroke:#006AA6;stroke-width:2;stroke-linecap:round;stroke-linejoin:round;stroke-miterlimit:10;}
</style>
<g>
	<path class="st0" d="M39.2,37c0,3.9,3.2,7.1,7.1,7.1s7.1-3.2,7.1-7.1s-3.2-7.1-7.1-7.1S39.2,33.1,39.2,37z"/>
	<line class="st0" x1="41.8" y1="61.3" x2="41.8" y2="54.3"/>
	<path class="st0" d="M37.7,61.3v-8.7c0-2.2,1-4.3,2.7-5.8l3.8-3.1"/>
	<line class="st0" x1="50.9" y1="61.3" x2="50.9" y2="54.3"/>
	<path class="st0" d="M48.5,43.8l3.8,3.1c1.7,1.4,2.7,3.5,2.7,5.8v8.7"/>
	<path class="st0" d="M63.7,6v9.1c0,1.8-1.5,3.3-3.3,3.3H48.1l-3.8,7.2v-7.2h-1.9c-1.8,0-3.3-1.5-3.3-3.3V6c0-1.8,1.5-3.3,3.3-3.3
		h17.8C62.2,2.7,63.7,4.2,63.7,6z"/>
	<path class="st0" d="M75.4,18.4v1.4c0,1.8-1.5,3.3-3.3,3.3h-7l-1.8,4.2l-1.9-4.2h-7c-1.8,0-3.3-1.5-3.3-3.3v-1.4"/>
	<path class="st0" d="M73.7,37c0,3.9,3.2,7.1,7.1,7.1c3.9,0,7.1-3.2,7.1-7.1s-3.2-7.1-7.1-7.1C76.9,29.9,73.7,33.1,73.7,37z"/>
	<line class="st0" x1="76.2" y1="61.3" x2="76.2" y2="54.3"/>
	<path class="st0" d="M72.2,61.3v-8.7c0-2.2,1-4.3,2.7-5.8l3.8-3.1"/>
	<line class="st0" x1="85.4" y1="61.3" x2="85.4" y2="54.3"/>
	<path class="st0" d="M83,43.8l3.8,3.1c1.7,1.4,2.7,3.5,2.7,5.8v8.7"/>
	<line class="st0" x1="43.2" y1="6.5" x2="55.9" y2="6.5"/>
	<line class="st0" x1="43.2" y1="10.6" x2="51" y2="10.6"/>
	<circle class="st0" cx="63.6" cy="37" r="7.1"/>
	<line class="st0" x1="59" y1="61.3" x2="59" y2="54.3"/>
	<path class="st0" d="M55,61.3v-8.7c0-2.2,1-4.3,2.7-5.8l3.8-3.1"/>
	<line class="st0" x1="68.2" y1="61.3" x2="68.2" y2="54.3"/>
	<path class="st0" d="M65.7,43.8l3.8,3.1c1.7,1.4,2.7,3.5,2.7,5.8v8.7"/>
	<path class="st0" d="M62.5,3.5c0.6-0.5,1.4-0.8,2.2-0.8h17.8c1.8,0,3.3,1.5,3.3,3.3v9.1c0,1.8-1.5,3.3-3.3,3.3h-1.9v7.2l-3.8-7.2
		H64.7c-0.8,0-1.6-0.3-2.2-0.8"/>
	<line class="st0" x1="81.9" y1="6.5" x2="69.2" y2="6.5"/>
	<line class="st0" x1="77" y1="10.6" x2="69.2" y2="10.6"/>
	<line class="st0" x1="73.1" y1="14.7" x2="69.2" y2="14.7"/>
</g>
</svg>
