<?xml version="1.0" encoding="utf-8"?>
<!-- Generator: Adobe Illustrator 23.0.3, SVG Export Plug-In . SVG Version: 6.00 Build 0)  -->
<svg version="1.1" id="Ebene_1" xmlns="http://www.w3.org/2000/svg" xmlns:xlink="http://www.w3.org/1999/xlink" x="0px" y="0px"
	 viewBox="0 0 483.8 98.9" style="enable-background:new 0 0 483.8 98.9;" xml:space="preserve">
<style type="text/css">
	.st0{fill:#69A700;}
	.st1{fill:#181B1D;}
</style>
<title>x.finance</title>
<path d="M113.1,42.3h-11.4v37.6H91.4V42.3h-4.1V34h4.1V18.8c0-13.2,3.5-18.8,13-18.8c2.2,0.1,4.5,0.3,6.7,0.6l-1.2,7.8
	c-1-0.3-2.1-0.5-3.2-0.5c-4.3,0-4.8,3.6-4.8,10.8V34h21.3v19c0,3.1,0.2,4.7,3.2,4.7c0.2,0,0.5-0.1,0.7-0.1l0.7,6.9
	c-1.7,0.9-3.7,1.4-5.7,1.4c-7.3,0-9.1-5.3-9.1-12.8V42.3H113.1z M124.2,23.6c0,3.3-2.7,6-6,6c0,0,0,0-0.1,0c-3.3,0-5.9-2.6-6-5.8
	v-0.1c0-3.3,2.6-6,5.9-6c0,0,0,0,0.1,0C121.5,17.6,124.2,20.3,124.2,23.6L124.2,23.6L124.2,23.6z"/>
<path d="M142.8,65.4h-10.3V34h10.3v3.5c1.6-2.6,5.3-4.4,10.1-4.4c8.1,0,12.7,5.3,12.7,14.8v17.5h-10.2V48.6c0-4.9-2.1-7.4-6.2-7.4
	c-4.2,0-6.4,2.6-6.4,7.4L142.8,65.4z"/>
<path d="M186.8,33.1c6.1,0,9,2.2,10.1,4.1V34h10.2v31.4h-10.2v-3c-1.1,1.7-4.9,3.9-10.2,3.9c-9.9,0-15.4-6.5-15.4-16.4
	C171.3,39.9,177,33.1,186.8,33.1z M189.9,58.2c4.4,0,7.8-3,7.8-8.4c0-5.1-3.2-8.7-7.8-8.7c-4.4,0-7.7,3.2-7.7,8.7
	S185.4,58.2,189.9,58.2L189.9,58.2z"/>
<path d="M225.2,65.4h-10.3V34h10.3v3.5c1.6-2.6,5.3-4.4,10.1-4.4c8.1,0,12.7,5.3,12.7,14.8v17.5h-10.2V48.6c0-4.9-2.1-7.4-6.2-7.4
	c-4.2,0-6.4,2.6-6.4,7.4L225.2,65.4z"/>
<path d="M271.5,57.6c2.2-0.1,4.3-0.8,6.1-2.1l5.7,6c-3.4,3.2-8,4.9-12.7,4.8c-10.6,0-17-6.8-17-16.6c0-10.1,6.6-16.6,17-16.6
	c4.8,0,9.5,1.4,12.7,4.7l-6,6c-1.7-1.4-3.8-2.1-6-2.1c-5.1,0-7.8,3.3-7.8,7.9C263.8,54.4,266.5,57.6,271.5,57.6z"/>
<path d="M304.1,33.1c11.8,0,16.6,7.8,16.6,17c0,0.9-0.1,1.7-0.2,2.6h-23.1c0,4.1,3.8,6,8.8,6c3.3,0,6.6-0.7,9.7-2.2l3.7,6.2
	c-1.4,0.9-6.5,3.6-14.3,3.6c-13.1,0-18.3-7.7-18.3-16.4C286.9,40.9,292.3,33.1,304.1,33.1z M297.4,46.3h13.3c-0.1-3.5-2.7-6-6.5-6
	C300.2,40.2,297.6,42.8,297.4,46.3L297.4,46.3z"/>
<polygon class="st0" points="55.5,61.9 77.9,34 52.2,34 42.5,46.1 "/>
<polygon class="st1" points="52.2,66 39.2,50.2 39.2,50.2 26,34 1.2,34 27,65.4 0,98.9 25.7,98.9 39.9,81.2 54.4,98.9 79.2,98.9 "/>
</svg>
