<?xml version="1.0" encoding="utf-8"?>
<!-- Generator: Adobe Illustrator 25.1.0, SVG Export Plug-In . SVG Version: 6.00 Build 0)  -->
<svg version="1.1" id="Ebene_1" xmlns="http://www.w3.org/2000/svg" xmlns:xlink="http://www.w3.org/1999/xlink" x="0px" y="0px"
	 viewBox="0 0 519.9 160.2" style="enable-background:new 0 0 519.9 160.2;" xml:space="preserve">
<style type="text/css">
	.st0{fill:#849635;}
</style>
<g>
	<g>
		<g>
			<path class="st0" d="M203.2,74.9l104.9,0l-14.7-20.4h-47.8L269,20.4L254.4,0L203.2,74.9z"/>
		</g>
	</g>
	<g>
		<path class="st0" d="M203.7,101.4c-3.4-1.1-7.7-1.9-13.2-1.9h-10.4c-6.1,0-13.9,0.5-19.6,4.6c-6.4,4.2-6.6,14.9-6.6,15.3
			c0,0-0.4,39.9-0.4,39.9h13.3v-36.8c0.1-10.2,7.8-11.3,11.9-11.3c0,0,15.4-0.2,18.9,1c3.4,1.2,4.3,3.8,4.3,12.7v2.1h13
			C214.7,119.6,216.6,105.4,203.7,101.4z"/>
	</g>
	<g>
		<path class="st0" d="M278.5,141.1c-1.4,7.5-5.8,7.4-14.1,7.4c-0.8,0-11.6,0-11.6,0c-16.5,0-19.2-3-19.2-13.4c0,0,58.3,0,58.3,0
			l0-7.8c0-18.4-9.9-27.8-29.3-27.8h-14.2c-8.3,0-27.8,0-27.8,24.2v11.9c0,21.7,14.3,24.5,26.7,24.5h18.1c17.6,0,25.5-4.5,26.6-19
			H278.5z M249.6,111h15.1c10.7,0,14.2,2.4,14.1,12.9c0,0-45.3-0.1-45.3,0C234.2,112.9,236.9,111,249.6,111z"/>
	</g>
	<g>
		<path class="st0" d="M309.4,159.3l21.5-23l21.4,23h18.4L340,127.7l26.9-28H349l-18.1,19.4l-18.2-19.4h-17.9l26.8,28L291,159.3
			H309.4z"/>
	</g>
	<g>
		<path class="st0" d="M56.8,139.1c0,4.1-1.4,9.4-13.1,9.4H28.8c-11.6,0-15.9-3.5-15.9-13V124c0-11.9,6.1-12.9,14.1-12.9h16.3
			c9.7,0,13.3,2.4,13.3,9v2.1h12.2l0-2.3c-0.2-7.6-3.9-20.4-25.6-20.4H28.4c-14,0-28.4,2.9-28.4,24.2v12.2
			c0,15.6,8.5,24.2,24.1,24.2h20c17.6,0,25.1-6.4,25.1-21.3v-2.5H56.8V139.1z"/>
	</g>
	<g>
		<path class="st0" d="M132.5,137.8c0,5.4,0,10.1-14.4,10.6l-15.9,0C89,147.6,89,143.1,89,137.8V99.7H76.1V140
			c0,7.9,2.1,19.9,23.3,19.9l11.1,0l11.5,0c21.2,0,23.4-12,23.4-20V99.7h-13V137.8z"/>
	</g>
	<g>
		<path class="st0" d="M429.8,137.8c0,5.4,0,10.1-14.4,10.6l-15.9,0c-13.2-0.7-13.2-5.3-13.2-10.5V99.7h-12.9V140
			c0,7.9,2.1,19.9,23.3,19.9l11.1,0l11.5,0c21.2,0,23.4-12,23.4-20V99.7h-13V137.8z"/>
	</g>
	<g>
		<path class="st0" d="M495.5,123.8h-23.4c-8.7,0-8.7-2.1-8.7-5v-2c0-3.9,0-5.5,13.4-5.5h15.6c10.7,0,12.6,0.4,12.7,6l0,2H518
			l-0.1-4.2c0-11.1-7-15.4-25.1-15.4h-13.6c-20.6,0-28.7,4.5-28.7,15.9v3.2c0,11.7,5.7,16.6,19.1,16.6h27.3c10,0,10,2.4,10,6.5
			c0,5.6-1.1,6.7-15.4,6.7h-18.9c-9.6,0-10.4-2.6-10.5-6.3c0,0,0-2.4,0-2.4h-12.3v2.3c0,5.8,1.4,10,4.3,13c5,5,13.1,5,21.8,5l17.5,0
			c9.2,0,26.4,0,26.4-18.1C519.9,125.2,508.8,123.8,495.5,123.8z"/>
	</g>
</g>
</svg>
