<?xml version="1.0" encoding="UTF-8"?><svg id="b" xmlns="http://www.w3.org/2000/svg" viewBox="0 0 230.7 63.3"><g id="c"><path d="m62.6,27.3c0,2.7,9.8,1.4,9.8,8.6s-4,6.5-8.7,6.5-6.5-.5-8.5-1.4l1.4-4.4c2.1.8,4.3,1.2,6.3,1.2s3.2-.5,3.2-1.6c0-2.9-9.8-1.3-9.8-8.6s3.6-6.3,8.2-6.3,5.1.6,7.6,1.6l-1.4,4.3c-1.6-.7-3.9-1.3-5.5-1.3s-2.7.5-2.7,1.5Z" style="fill:#171b1e; stroke-width:0px;"/><path d="m98.1,31.7c0,6.8-4.4,10.7-11.5,10.7s-11.4-3.9-11.4-10.7,4.3-10.6,11.4-10.6,11.5,3.8,11.5,10.6Zm-16.5,0c0,3.1,1.6,5.5,5,5.5s5-2.5,5-5.5-1.6-5.4-5-5.4-5,2.3-5,5.4Z" style="fill:#171b1e; stroke-width:0px;"/><path d="m109.9,10.9v10.9h4v5.3h-4v25.2h-6.5v-25.2h-2.7v-5.3h2.7v-10.8c0-7.9,2.3-10.9,8.4-10.9s2.9.2,4.1.4l-.8,4.9c-.9-.2-1.7-.2-2.2-.2-2.5,0-3.1,1.7-3.1,5.8Z" style="fill:#171b1e; stroke-width:0px;"/><path d="m118.6,35.4v-8.7h-2.7v-5h2.7v-5.1h6.5v5.1h4v5h-4v6.4c0,2.9.7,3.5,2.2,3.5s1-.1,1.4-.2l.8,5c-2.5.8-3.4.9-5.4.9-3,0-5.5-1.3-5.5-7Z" style="fill:#171b1e; stroke-width:0px;"/><path d="m130.5,21.7h6.9l4.4,9,.3.8.4-.8,5.4-9.5,5.8,9.4c.2.3.3.6.3.9.1-.3.2-.5.3-.8l3.9-8.9h7l-10.3,20.7-6.6-10.6c-.2-.3-.3-.5-.3-.8l-.3.8-6.4,10.6-10.7-20.7Z" style="fill:#171b1e; stroke-width:0px;"/><path d="m175.5,21.1c3.9,0,5.8,1.4,6.5,2.6v-2h6.5v20.1h-6.5v-1.9c-.7,1.1-3.1,2.5-6.5,2.5-6.4,0-9.9-4.2-9.9-10.5s3.6-10.7,9.9-10.7Zm2,16.1c2.8,0,5-1.9,5-5.4s-2.1-5.5-5-5.5-4.9,2-4.9,5.5,2,5.4,4.9,5.4Z" style="fill:#171b1e; stroke-width:0px;"/><path d="m200,41.8h-6.5v-20.1h6.5v2.6c1.4-2.1,3.5-3.2,5.7-3.2s2.3.4,3.2,1l-1.7,5.3c-.8-.3-1.7-.5-2.5-.5-2.5,0-4.7,1.4-4.7,6v9Z" style="fill:#171b1e; stroke-width:0px;"/><path d="m220.1,21.1c7.6,0,10.6,5,10.6,10.9s0,1.3-.1,1.7h-14.8c0,2.7,2.4,3.8,5.7,3.8s4.4-.5,6.2-1.4l2.4,4c-.9.6-4.2,2.3-9.2,2.3-8.4,0-11.7-4.9-11.7-10.5s3.4-10.7,11-10.7Zm-4.3,8.4h8.5c0-2.3-1.7-3.9-4.2-3.9s-4.2,1.6-4.3,3.9Z" style="fill:#171b1e; stroke-width:0px;"/><polygon points="35.5 39.6 49.9 21.7 33.4 21.7 27.2 29.4 35.5 39.6" style="fill:#a07200; stroke-width:0px;"/><polygon points="33.4 42.2 25.1 32.1 25.1 32.1 16.6 21.7 .8 21.7 17.3 41.8 0 63.3 16.4 63.3 25.6 52 34.9 63.3 50.7 63.3 33.4 42.2 33.4 42.2" style="fill:#171b1e; stroke-width:0px;"/></g></svg>