<?xml version="1.0" encoding="utf-8"?>
<!-- Generator: Adobe Illustrator 27.9.0, SVG Export Plug-In . SVG Version: 6.00 Build 0)  -->
<svg version="1.1" id="Layer_1" xmlns="http://www.w3.org/2000/svg" xmlns:xlink="http://www.w3.org/1999/xlink" x="0px" y="0px"
	 viewBox="0 0 128 64" style="enable-background:new 0 0 128 64;" xml:space="preserve">
<style type="text/css">
	.st0{fill:none;stroke:#006AA6;stroke-width:2;stroke-linecap:round;stroke-linejoin:round;stroke-miterlimit:10;}
</style>
<g>
	<path class="st0" d="M72.8,17.3V6.9c0-1.9-1.5-3.4-3.4-3.4H44.8c-1.9,0-3.4,1.5-3.4,3.4v45c0,0,0,0.1,0,0.1c0,1.8,1.5,3.3,3.4,3.3
		h19.6"/>
	<line class="st0" x1="72.8" y1="35.5" x2="72.8" y2="29.5"/>
	<line class="st0" x1="41.4" y1="6.9" x2="72.8" y2="6.9"/>
	<polyline class="st0" points="66.9,52.1 41.4,52.1 41.4,52.1 	"/>
	<path class="st0" d="M62.1,26c0,2.8-2.2,5-5,5s-5-2.2-5-5s2.2-5,5-5C59.9,21,62.1,23.2,62.1,26z"/>
	<path class="st0" d="M48.6,39.5c0-4.7,3.8-8.5,8.5-8.5l0,0c4.7,0,8.5,3.8,8.5,8.5"/>
	<path class="st0" d="M81.8,42c0,3.8-3.1,6.8-6.8,6.8c-3.8,0-6.8-3.1-6.8-6.8c0-3.8,3.1-6.8,6.8-6.8C78.7,35.2,81.8,38.3,81.8,42z"
		/>
	<path class="st0" d="M63.3,60.5c0-6.4,5.2-11.6,11.6-11.6l0,0c6.4,0,11.6,5.2,11.6,11.6"/>
	<path class="st0" d="M86.6,20.7v5.4c0,1.9-1.5,3.4-3.4,3.4H71.3l-4.4,4.3l0.6-5.2v0c-0.7-0.6-1.1-1.5-1.1-2.5v-5.4
		c0-1.9,1.5-3.4,3.4-3.4h13.4C85.1,17.3,86.6,18.8,86.6,20.7z"/>
	<line class="st0" x1="71.8" y1="23.4" x2="72.8" y2="23.4"/>
	<line class="st0" x1="76" y1="23.4" x2="77" y2="23.4"/>
	<line class="st0" x1="80.2" y1="23.4" x2="81.2" y2="23.4"/>
</g>
</svg>
