<?xml version="1.0" encoding="utf-8"?>
<!-- Generator: Adobe Illustrator 23.0.3, SVG Export Plug-In . SVG Version: 6.00 Build 0)  -->
<svg version="1.1" id="Ebene_1" xmlns="http://www.w3.org/2000/svg" xmlns:xlink="http://www.w3.org/1999/xlink" x="0px" y="0px"
	 viewBox="0 0 483.8 98.9" style="enable-background:new 0 0 483.8 98.9;" xml:space="preserve">
<style type="text/css">
	.st0{fill:#A72B00;}
	.st1{fill:#181B1D;}
</style>
<title>x.marketplace</title>
<polygon class="st0" points="55.5,61.9 77.9,34 52.2,34 42.5,46.1 "/>
<polygon class="st1" points="52.2,66 39.2,50.2 39.2,50.2 26,34 1.2,34 27,65.4 0,98.9 25.7,98.9 39.9,81.2 54.4,98.9 79.2,98.9 "/>
<path d="M87.3,34h10.3v3.4c1.2-2.5,4.6-4.3,8.9-4.3c4.2-0.1,8.1,2.1,10.2,5.7c2.1-3.5,5.2-5.7,10.7-5.7c8.5,0,12.9,5.6,12.9,14.3v18
	h-10.2v-18c0-4.1-1.9-6.4-5.3-6.4c-3.3,0-5.9,2.1-5.9,6.4v18h-10.2v-18c0-4.1-2-6.4-5.3-6.4c-3.2,0-5.9,2.2-5.9,6.6v17.8H87.3V34z"
	/>
<path d="M161.5,33.1c6.1,0,9,2.2,10.1,4.1V34h10.2v31.4h-10.2v-3c-1.1,1.7-4.9,3.9-10.2,3.9c-9.9,0-15.4-6.5-15.4-16.4
	C146,39.9,151.7,33.1,161.5,33.1z M164.5,58.2c4.4,0,7.8-3,7.8-8.4c0-5.1-3.2-8.7-7.8-8.7c-4.4,0-7.7,3.2-7.7,8.7
	S160,58.2,164.5,58.2z"/>
<path d="M199.6,65.4h-10.1V34h10.1v4.1c1.9-3.1,5.2-4.9,8.8-5c1.8,0,3.5,0.6,5.1,1.5l-2.6,8.2c-1.3-0.5-2.6-0.8-4-0.8
	c-3.9,0-7.3,2.2-7.3,9.4V65.4z"/>
<path d="M227.4,52.8v12.6h-10.1v-65h10.1v46.3L238.3,34h12.1l-14.1,15.3l14.1,16.1H238L227.4,52.8z"/>
<path d="M268.1,33.1c11.8,0,16.6,7.8,16.6,17c0,0.9-0.1,1.7-0.2,2.6h-23.1c0,4.1,3.8,6,8.8,6c3.3,0,6.6-0.7,9.6-2.2l3.7,6.2
	c-1.4,0.9-6.5,3.6-14.3,3.6c-13.1,0-18.3-7.7-18.3-16.4C250.9,40.9,256.3,33.1,268.1,33.1z M261.4,46.3h13.3c-0.1-3.5-2.7-6-6.5-6
	C264.2,40.2,261.6,42.8,261.4,46.3z"/>
<path d="M292.8,55.4V41.8h-4.1V34h4.1v-8H303v8h6.3v7.8H303v10c0,4.6,1.1,5.5,3.4,5.5c0.8,0,1.5-0.1,2.3-0.3l1.3,7.8
	c-4,1.2-5.3,1.4-8.5,1.4C296.8,66.3,292.8,64.3,292.8,55.4z"/>
<path d="M335.8,66.3c-6.1,0-9-2.1-10.1-4v19.3h-10.1V34h10.1v4h0.1c0-1.7,3.8-4.9,10.1-4.9c9.9,0,15.4,6.6,15.4,16.5
	S345.7,66.3,335.8,66.3z M332.8,41.3c-4.5,0-7.8,2.9-7.8,8.3c0,5.1,3.2,8.6,7.7,8.6s7.8-3.2,7.8-8.6S337.3,41.3,332.8,41.3z"/>
<path d="M357.2,0.4h10.1V54c0,2.4,0.3,3.8,3,3.8c0.3,0,0.7,0,1-0.1l0.7,7.5c-1.9,0.5-3.9,0.8-5.9,0.7c-7,0-8.9-4.7-8.9-11.9
	L357.2,0.4z"/>
<path d="M390.5,33.1c6.1,0,9,2.2,10.1,4.1V34h10.2v31.4h-10.2v-3c-1.1,1.7-4.9,3.9-10.2,3.9c-9.9,0-15.4-6.5-15.4-16.4
	C375,39.9,380.6,33.1,390.5,33.1z M393.5,58.2c4.4,0,7.8-3,7.8-8.4c0-5.1-3.2-8.7-7.8-8.7c-4.4,0-7.7,3.2-7.7,8.7
	S389,58.2,393.5,58.2z"/>
<path d="M434.7,57.6c2.2-0.1,4.3-0.8,6.1-2.1l5.7,6c-3.4,3.2-8,4.9-12.7,4.8c-10.6,0-17-6.8-17-16.6c0-10.1,6.6-16.6,17-16.6
	c4.8,0,9.5,1.4,12.7,4.7l-6,6c-1.7-1.4-3.8-2.1-6-2.1c-5.1,0-7.8,3.3-7.8,7.9C426.9,54.4,429.7,57.6,434.7,57.6z"/>
<path d="M467.2,33.1c11.8,0,16.6,7.8,16.6,17c0,0.9-0.1,1.7-0.2,2.6h-23.1c0,4.1,3.8,6,8.8,6c3.3,0,6.6-0.7,9.7-2.2l3.7,6.2
	c-1.4,0.9-6.5,3.6-14.3,3.6c-13.1,0-18.3-7.7-18.3-16.4C450.1,40.9,455.4,33.1,467.2,33.1z M460.5,46.3h13.3c-0.1-3.5-2.7-6-6.5-6
	C463.3,40.2,460.7,42.8,460.5,46.3z"/>
</svg>
